<?xml version="1.0" encoding="utf-8" ?>
<!-- Generator: Assembly 1.0 - http://assemblyapp.co -->
<svg version="1.1" xmlns="http://www.w3.org/2000/svg" xmlns:xlink="http://www.w3.org/1999/xlink" width="300" height="300" viewBox="0 0 300 300">
	<g id="widget" transform="matrix(1,0,0,1,150,150)">
		<path d="M-1.4210855e-14,110.42292 L-1.4210855e-14,110.42292 C-61.023192,110.42292 -110.42292,61.023195 -110.42292,-1.70705e-06 L-110.42292,-1.70705e-06 C-110.42292,-61.02319 -61.023192,-110.42292 -1.4210855e-14,-110.42292 L-1.4210855e-14,-110.42292 C61.02318,-110.42292 110.42292,-61.02319 110.42292,-1.70705e-06 L110.42292,-1.70705e-06 C110.42292,61.023195 61.02318,110.42292 -1.4210855e-14,110.42292 Z" fill="#011534" fill-opacity="1" stroke-width="2.42803" stroke="#ffcc1a" stroke-linecap="square" stroke-linejoin="miter" />
		<path d="M-1.367347e-06,30.051913 C-29.645895,30.051913 -56.291908,43.127647 -76.585229,65.69383 C-56.468372,87.416416 -29.469434,101.33575 -1.367347e-06,101.33575 C29.469431,101.33575 56.291908,88.049116 76.585229,65.69383 C56.468369,43.971241 29.292963,30.051913 -1.367347e-06,30.051913 Z" fill="#345b7d" fill-opacity="1" stroke-width="6.08057" stroke="#345b7d" stroke-linecap="round" stroke-linejoin="round" />
		<path d="M-57.201407,15.979063 C-57.201407,5.4105953 -47.878568,-3.1254745 -36.335999,-3.1254745 C-24.79343,-3.1254745 -15.470585,5.4105953 -15.470585,15.979063 L-15.470585,23.549742 C-15.470585,34.118206 -24.79343,42.654273 -36.335999,42.654273 C-47.878568,42.654273 -57.201407,34.118206 -57.201407,23.549742 L-57.201407,15.979063 Z" fill="#dce8eb" fill-opacity="1" />
		<path d="M-37.881064,40.463933 C-37.881064,26.955559 -41.423786,16.044947 -45.810016,16.044947 C-50.196245,16.044947 -53.73897,26.955559 -53.73897,40.463933 L-53.73897,50.140606 C-53.73897,63.648969 -50.196245,74.559581 -45.810016,74.559581 C-41.423786,74.559581 -37.881064,63.648969 -37.881064,50.140606 L-37.881064,40.463933 Z" fill="#dce8eb" fill-opacity="1" />
		<path d="M-19.922423,40.463933 C-19.922423,26.955559 -23.465145,16.044947 -27.851374,16.044947 C-32.237604,16.044947 -35.780328,26.955559 -35.780328,40.463933 L-35.780328,50.140606 C-35.780328,63.648969 -32.237604,74.559581 -27.851374,74.559581 C-23.465145,74.559581 -19.922423,63.648969 -19.922423,50.140606 L-19.922423,40.463933 Z" fill="#dce8eb" fill-opacity="1" />
		<path d="M-58.309877,-7.5127535 C-58.101923,-7.5127535 -57.893968,-7.5127535 -57.616695,-7.5820733 C-54.28942,1.0133887 -45.901913,7.1827099 -36.128041,7.1827099 C-26.354168,7.1827099 -17.966661,1.0827059 -14.639388,-7.5127535 C-14.570071,-7.5127535 -14.431432,-7.5127535 -14.362114,-7.5127535 C-11.242794,-7.5127535 -8.7473386,-11.255939 -8.7473386,-15.900261 C-8.7473386,-19.643444 -10.410977,-22.762766 -12.629159,-23.871858 L-12.629159,-34.477547 C-11.034837,-34.962775 -9.8564293,-36.487776 -9.8564293,-38.220732 C-9.8564293,-40.369597 -11.589385,-42.171871 -13.807566,-42.171871 C-15.956436,-42.171871 -17.758709,-40.369597 -17.758709,-38.220732 C-17.758709,-36.487776 -16.580296,-34.962775 -14.98598,-34.477547 L-14.98598,-25.050267 C-18.521208,-33.229819 -26.631442,-38.983233 -36.128041,-38.983233 C-45.901913,-38.983233 -54.28942,-32.883228 -57.616695,-24.218449 C-57.824649,-24.287767 -58.032604,-24.287767 -58.309877,-24.287767 C-61.429197,-24.287767 -63.924654,-20.544582 -63.924654,-15.900261 C-63.924654,-11.255939 -61.429197,-7.5127535 -58.309877,-7.5127535 Z M-52.071236,-24.565041 C-42.089411,-29.209361 -30.582582,-29.209361 -20.600755,-24.565041 C-19.145074,-22.000265 -18.382574,-19.019582 -18.382574,-15.900261 C-18.382574,-13.196849 -19.006434,-10.562757 -20.04621,-8.2752557 C-30.305308,-3.2843423 -42.366683,-3.2843423 -52.625783,-8.2752557 C-53.734874,-10.49344 -54.28942,-13.127532 -54.28942,-15.830942 C-54.28942,-19.019582 -53.526919,-22.000265 -52.071236,-24.565041 Z" fill="#dce8eb" fill-opacity="1" />
		<path d="M-45.763276,-16.940035 L-42.436002,-14.929805 L-44.44623,-18.3264 L-42.436002,-21.653674 L-45.763276,-19.643444 L-49.090552,-21.653674 L-47.080324,-18.3264 L-49.090552,-14.929805 Z" fill="#dce8eb" fill-opacity="1" />
		<path d="M-37.72236,-11.394576 L-35.226902,-9.9388917 L-36.751903,-12.43435 L-35.226902,-14.929805 L-37.72236,-13.404803 L-40.287135,-14.929805 L-38.762133,-12.43435 L-40.287135,-9.9388917 Z" fill="#dce8eb" fill-opacity="1" />
		<path d="M-36.122617,-36.216226 C-25.162538,-36.216226 -16.277641,-27.641978 -16.277641,-17.065107 C-16.277641,-6.4882365 -25.162538,2.0860106 -36.122617,2.0860106 C-47.082695,2.0860106 -55.967594,-6.4882365 -55.967594,-17.065107 C-55.967594,-27.641978 -47.082695,-36.216226 -36.122617,-36.216226 Z" fill="#3162a6" fill-opacity="1" />
		<path d="M-52.987394,65.457629 C-53.507546,61.81519 -53.735878,56.684968 -45.32703,58.717351 C-36.299258,60.899325 -36.127014,69.532711 -40.947171,73.400616 C-46.854552,78.12184 -55.269997,76.677493 -58.303029,75.207385 C-61.331251,73.717375 -62.098165,70.815499 -60.110686,69.695443 C-58.123206,68.575382 -52.481071,68.970382 -52.987394,65.457629 Z" fill="#dce8eb" fill-opacity="1" />
		<path d="M-20.594563,65.457634 C-20.074406,61.815187 -19.846073,56.684965 -28.254921,58.717347 C-37.282687,60.89932 -37.454933,69.532713 -32.634779,73.400619 C-26.727398,78.121843 -18.311959,76.677498 -15.278928,75.207389 C-12.250707,73.717374 -11.483792,70.815503 -13.471272,69.695442 C-15.458745,68.575378 -21.100886,68.970386 -20.594563,65.457634 Z" fill="#dce8eb" fill-opacity="1" />
		<path d="M8.4616245,15.370739 C12.52004,15.370739 15.766772,12.711936 15.766772,9.4622871 C15.766772,6.2126385 12.479453,3.5538349 8.4616245,3.5538349 L-20.596628,3.5538349 L-20.596628,15.370739 C-20.596628,15.370739 8.4616245,15.370739 8.4616245,15.370739 Z" fill="#dce8eb" fill-opacity="1" />
		<path d="M8.5466143,73.396018 C8.5466143,29.861668 8.5466143,-14.068513 8.5466143,-57.602863 M6.788126,73.396018 C6.788126,29.861668 6.788126,-14.068513 6.788126,-57.602863" fill="#ffcc1a" fill-opacity="1" stroke-width="1.81594" stroke="#ffcc1a" stroke-linecap="square" stroke-linejoin="miter" />
		<path d="M-80.247495,1.5158178 C-83.762186,-0.51338973 -85.244536,-4.4393472 -83.619712,-7.2536254 C-81.994888,-10.067904 -77.818584,-10.726836 -74.339043,-8.7179215 L-49.173858,5.8112049 L-55.08231,16.044944 C-55.08231,16.044944 -80.247495,1.5158178 -80.247495,1.5158178 Z" fill="#dce8eb" fill-opacity="1" />
		<path d="M-77.10832,-16.127677 C-76.778333,-17.328039 -75.727946,-18.072144 -74.766793,-17.807917 C-73.805641,-17.54369 -73.286533,-16.35521 -73.61322,-15.166852 L-75.975929,-6.5722566 L-79.47103,-7.5330821 C-79.47103,-7.5330821 -77.10832,-16.127677 -77.10832,-16.127677 Z" fill="#dce8eb" fill-opacity="1" />
		<path d="M-81.002103,-16.05018 C-81.392327,-17.232334 -82.478974,-17.922408 -83.425546,-17.609948 C-84.372119,-17.297489 -84.830506,-16.084295 -84.444184,-14.913964 L-81.650183,-6.4497447 L-78.208101,-7.5859607 C-78.208101,-7.5859607 -81.002103,-16.05018 -81.002103,-16.05018 Z" fill="#dce8eb" fill-opacity="1" />
		<path d="M6.7650139,3.7998028 C7.8431238,3.1773557 8.2978259,1.9730921 7.7994209,1.1098294 C7.3010159,0.24656665 6.0199603,0.044443225 4.9526321,0.66066545 L-2.7666356,5.1173867 L-0.95425376,8.256524 C-0.95425376,8.256524 6.7650139,3.7998028 6.7650139,3.7998028 Z" fill="#dce8eb" fill-opacity="1" />
		<path d="M7.7666991,-55.556473 L7.7666991,-55.556473 C5.6605466,-55.556473 3.9555663,-57.261453 3.9555663,-59.367606 L3.9555663,-59.367606 C3.9555663,-61.473758 5.6605466,-63.178738 7.7666991,-63.178738 L7.7666991,-63.178738 C9.8728513,-63.178738 11.577832,-61.473758 11.577832,-59.367606 L11.577832,-59.367606 C11.577832,-57.261453 9.8728513,-55.556473 7.7666991,-55.556473 Z" fill="#ffcc1a" fill-opacity="1" />
		<path d="M-25.919582,-28.118345 C-25.041226,-26.596988 -25.562482,-24.651636 -27.083839,-23.773281 C-28.605196,-22.894925 -30.550547,-23.41618 -31.428903,-24.937537 C-32.307259,-26.458894 -31.786003,-28.404245 -30.264647,-29.282601 C-28.74329,-30.160957 -26.797938,-29.639702 -25.919582,-28.118345 Z" fill="#ffffff" fill-opacity="1" />
		<path d="M-31.598213,-22.618596 C-31.091437,-21.740835 -31.392181,-20.618446 -32.269942,-20.11167 C-33.147704,-19.604894 -34.270093,-19.905637 -34.776869,-20.783399 C-35.283644,-21.66116 -34.982901,-22.78355 -34.10514,-23.290325 C-33.227378,-23.797101 -32.104989,-23.496358 -31.598213,-22.618596 Z" fill="#ffffff" fill-opacity="1" />
		<path d="M84.575511,-21.084407 L84.575511,-53.61975 C84.577444,-53.61975 84.579372,-53.61975 84.581301,-53.61975 C84.581301,-56.370338 84.581301,-59.08611 84.581301,-61.836698 C59.884235,-61.836698 35.187167,-55.743622 10.572152,-55.743622 C10.572152,-55.704337 10.572152,-55.665051 10.572152,-55.625767 L10.566358,-55.625767 L10.566358,-14.291977 L10.572152,-14.291977 C10.572152,-11.774743 10.572152,-9.2599825 10.572152,-6.7743866 C35.269218,-6.7743866 59.966283,-12.867462 84.581301,-12.867462 C84.581301,-15.61805 84.581301,-18.333821 84.581301,-21.084407 C84.579368,-21.084407 84.577439,-21.084407 84.575511,-21.084407 Z" fill="#bed2d9" fill-opacity="1" />
		<path d="M65.779959,-29.86174 C66.103143,-31.26221 66.264734,-32.716546 66.264734,-34.170882 C66.264734,-36.971824 65.618364,-39.665038 64.541078,-42.035066 C64.379484,-41.927337 64.217894,-41.873474 64.056299,-41.873474 C63.517656,-41.873474 63.140608,-42.304388 63.140608,-42.789166 C63.140608,-43.166217 63.356066,-43.489402 63.733114,-43.650995 C60.501257,-49.25288 54.468458,-52.969515 47.57383,-52.969515 C40.948524,-52.969515 35.131181,-49.576066 31.84546,-44.405095 C31.953189,-44.405095 32.060917,-44.458959 32.168646,-44.458959 C33.030474,-44.458959 33.622982,-43.758724 33.569117,-42.896895 C33.515253,-42.196659 33.030474,-41.604153 32.168646,-41.604153 C31.46841,-41.604153 30.929767,-41.765745 30.71431,-42.412117 C29.529296,-39.93436 28.882925,-37.187281 28.882925,-34.278609 C28.882925,-33.739966 28.882925,-33.255189 28.936789,-32.77041 C29.206111,-32.878139 29.690889,-32.932002 29.96021,-32.932002 C31.737732,-32.985868 32.707289,-31.585395 32.707289,-30.023332 C32.707289,-28.568996 31.630003,-27.383982 30.283396,-27.168526 C32.330239,-22.266875 36.37006,-18.388647 41.433302,-16.664991 C41.54103,-17.580682 42.187402,-18.227056 43.156959,-18.388647 C44.234244,-18.550241 45.203802,-17.472955 45.203802,-16.39567 C45.203802,-16.180212 45.149938,-15.964754 45.096073,-15.803164 C45.904037,-15.695433 46.765866,-15.641569 47.627694,-15.641569 C55.276422,-15.641569 61.847864,-20.220033 64.8104,-26.791476 C64.433352,-27.11466 64.16403,-27.653303 64.16403,-28.191946 C64.056299,-28.946047 64.8104,-29.754011 65.779959,-29.86174 Z M39.117138,-36.702503 C39.117138,-37.833653 40.14056,-38.964802 41.271709,-38.964802 C42.456724,-38.964802 43.480145,-38.04911 43.480145,-36.864095 C43.480145,-35.732945 42.295131,-34.386338 41.163981,-34.386338 C39.978966,-34.440204 39.117138,-35.571353 39.117138,-36.702503 Z M39.494188,-23.182568 C38.740088,-23.020976 37.87826,-23.667348 37.87826,-24.421446 C37.87826,-25.175547 38.25531,-25.875782 39.00941,-25.875782 C39.763509,-25.875782 40.625338,-25.391003 40.625338,-24.636904 C40.571474,-23.82894 40.248288,-23.344161 39.494188,-23.182568 Z M41.271709,-45.697838 C40.248288,-45.697838 39.386459,-46.559666 39.386459,-47.583087 C39.386459,-48.606509 40.409881,-49.468337 41.487167,-49.468337 C42.510588,-49.468337 43.318552,-48.606509 43.318552,-47.529223 C43.318552,-46.505802 42.348995,-45.697838 41.271709,-45.697838 Z M49.566809,-48.014002 C49.028166,-48.014002 48.597252,-48.606509 48.597252,-49.145151 C48.597252,-49.683794 49.028166,-50.060844 49.512943,-50.060844 C50.051586,-50.060844 50.697958,-49.683794 50.697958,-49.145151 C50.751824,-48.606509 50.105452,-48.014002 49.566809,-48.014002 Z M54.63005,-20.112304 C53.014122,-20.112304 51.34433,-20.974134 51.34433,-22.590062 C51.34433,-24.20599 52.367752,-25.660324 53.98368,-25.660324 C55.599609,-25.660324 57.107808,-24.798497 57.107808,-23.182568 C57.107808,-21.56664 56.192115,-20.112304 54.63005,-20.112304 Z M48.220202,-30.615839 C48.220202,-31.369939 48.812708,-31.962446 49.566809,-31.962446 C50.320908,-31.962446 51.236601,-31.423803 51.236601,-30.669704 C51.236601,-29.915603 50.320908,-28.946047 49.566809,-28.946047 C48.812708,-28.99991 48.220202,-29.86174 48.220202,-30.615839 Z M54.845508,-37.133417 C52.7448,-37.133417 51.290466,-38.749345 51.290466,-40.903916 C51.290466,-43.004623 53.391172,-44.620552 55.49188,-44.620552 C57.646451,-44.620552 59.046921,-42.627574 59.046921,-40.526867 C59.046921,-38.372296 56.946216,-37.133417 54.845508,-37.133417 Z" fill="#f7f9fe" fill-opacity="1" />
	</g>
</svg>