<?xml version="1.0" encoding="utf-8" ?>
<!-- Generator: Assembly 1.0 - http://assemblyapp.co -->
<svg version="1.1" xmlns="http://www.w3.org/2000/svg" xmlns:xlink="http://www.w3.org/1999/xlink" width="300" height="168.75" viewBox="0 0 300 168.75">
	<rect x="0" y="0" width="300" height="168.75" fill="#011534" />
	<g id="widget" transform="matrix(1,0,0,1,150,84.375)">
		<path d="M-110.79181,-69.045155 C-110.79181,-72.527798 -114.40109,-72.844402 -115.88913,-72.844402 C-119.97332,-72.844402 -123.20268,-70.469873 -123.20268,-67.177192 C-123.20268,-62.523115 -116.7123,-60.591831 -116.7123,-55.177904 C-116.7123,-52.518432 -118.26366,-50.967072 -120.3849,-50.967072 C-122.41117,-50.967072 -123.4243,-52.42345 -123.4243,-54.00647 C-123.4243,-56.191037 -121.4297,-56.982547 -119.72004,-56.982547 C-119.81502,-58.628887 -121.39804,-59.072132 -122.50615,-59.072132 C-124.72238,-59.072132 -127.16023,-57.299151 -127.16023,-53.879828 C-127.16023,-50.017261 -124.05751,-48.434241 -120.44823,-48.434241 C-115.85747,-48.434241 -111.55166,-51.030393 -111.55166,-56.349339 C-111.55166,-63.187983 -118.67524,-63.821191 -118.67524,-68.475268 C-118.67524,-70.374892 -117.50381,-71.356364 -115.76249,-71.356364 C-114.02117,-71.356364 -113.41962,-70.343232 -113.41962,-69.235118 C-113.41962,-68.190325 -113.98951,-67.01889 -114.84434,-66.512324 C-114.43275,-66.037418 -113.95785,-65.847456 -113.38796,-65.847456 C-111.80494,-65.847456 -110.79181,-67.208853 -110.79181,-69.045155 Z" fill="#ffffff" fill-opacity="1" />
		<path d="M-107.56245,-66.100739 L-112.84973,-41.184012 L-108.06901,-42.323786 L-106.42267,-50.048921 C-106.07441,-49.447374 -105.31456,-48.909147 -103.73154,-48.909147 C-97.589423,-48.909147 -95.943083,-55.811112 -95.943083,-60.085265 C-95.943083,-63.852851 -97.652744,-65.087607 -99.805651,-65.087607 C-101.38867,-65.087607 -102.59177,-64.51772 -103.50992,-63.72621 L-103.00335,-66.100739 Z M-104.71301,-51.663601 C-105.4412,-51.663601 -105.78946,-52.043526 -105.91611,-52.39179 L-104.04814,-61.256699 C-103.4466,-62.269832 -102.5601,-62.808059 -101.86358,-62.808059 C-101.29369,-62.808059 -100.28056,-62.618096 -100.28056,-60.180246 C-100.28056,-57.204169 -101.38867,-51.663601 -104.71301,-51.663601 Z" fill="#ffffff" fill-opacity="1" />
		<path d="M-84.513682,-64.929305 L-84.861946,-63.251304 L-84.861946,-63.472927 C-84.861946,-64.391078 -85.621796,-65.087607 -87.426438,-65.087607 C-92.935346,-65.087607 -95.563158,-58.280623 -95.563158,-54.00647 C-95.563158,-50.238883 -93.505233,-48.909147 -91.352327,-48.909147 C-89.104439,-48.909147 -87.6164,-50.365525 -86.634928,-51.821903 C-86.444966,-49.92228 -85.305192,-48.909147 -83.53221,-48.909147 C-81.822549,-48.909147 -78.973114,-49.605676 -77.168471,-54.766319 L-78.498208,-54.766319 C-78.973114,-53.1833 -79.827944,-51.790243 -81.0627,-51.790243 C-81.94919,-51.790243 -82.360776,-52.265148 -82.360776,-53.151639 C-82.360776,-53.436583 -82.329115,-53.753187 -82.234134,-54.164772 L-79.954586,-64.929305 Z M-86.444966,-63.124662 C-85.431833,-63.124662 -85.14689,-62.301492 -85.14689,-61.921568 L-86.666589,-54.766319 C-87.046513,-52.930017 -88.37625,-51.980205 -89.294401,-51.980205 C-89.864288,-51.980205 -90.877421,-52.011865 -90.877421,-54.449715 C-90.877421,-57.425792 -89.136099,-63.124662 -86.444966,-63.124662 Z" fill="#ffffff" fill-opacity="1" />
		<path d="M-69.664959,-60.370208 C-69.285034,-60.116925 -68.905109,-59.990284 -68.556845,-59.990284 C-67.638694,-59.990284 -66.878844,-60.750133 -66.878844,-62.301492 C-66.878844,-63.75787 -67.575373,-65.214248 -70.393148,-65.214248 C-76.820207,-65.214248 -78.909793,-57.615754 -78.909793,-53.943149 C-78.909793,-50.365525 -76.946849,-48.909147 -73.970772,-48.909147 C-69.75994,-48.909147 -67.068807,-51.853563 -65.264165,-54.766319 L-66.340618,-54.766319 C-67.923637,-52.961677 -69.443336,-51.56862 -71.944507,-51.56862 C-73.464206,-51.56862 -74.224055,-52.075186 -74.224055,-54.228093 C-74.224055,-57.742396 -72.16613,-63.536248 -70.171525,-63.536248 C-69.569978,-63.536248 -69.285034,-63.029681 -69.285034,-62.238171 C-69.285034,-61.699945 -69.411676,-61.066737 -69.664959,-60.370208 Z" fill="#ffffff" fill-opacity="1" />
		<path d="M-62.066465,-54.228093 C-62.066465,-54.608017 -62.034805,-55.051263 -62.003144,-55.494508 C-58.203897,-55.716131 -54.721254,-58.533906 -54.721254,-62.174851 C-54.721254,-63.75787 -55.386123,-65.214248 -58.203897,-65.214248 C-64.694278,-65.214248 -66.752203,-57.584094 -66.752203,-53.943149 C-66.752203,-50.365525 -64.789259,-48.909147 -61.813182,-48.909147 C-57.60235,-48.909147 -54.911217,-51.853563 -53.106575,-54.766319 L-54.183028,-54.766319 C-55.766047,-52.961677 -57.285746,-51.56862 -59.786917,-51.56862 C-61.306616,-51.56862 -62.066465,-52.075186 -62.066465,-54.228093 Z M-57.159105,-62.238171 C-57.159105,-59.610359 -59.312011,-57.172509 -61.749861,-57.014207 C-61.116653,-60.148586 -59.565294,-63.536248 -57.950614,-63.536248 C-57.349067,-63.536248 -57.159105,-63.029681 -57.159105,-62.238171 Z" fill="#ffffff" fill-opacity="1" />
		<path d="M-42.088759,-54.766319 C-42.690306,-54.259753 -43.513476,-53.689866 -44.368307,-53.1833 C-44.273326,-53.563224 -44.241665,-53.943149 -44.241665,-54.386395 C-44.241665,-56.47598 -44.558269,-57.710736 -44.938194,-65.910777 L-49.623932,-65.277569 C-50.605404,-62.174851 -51.745178,-59.040472 -53.51816,-55.906093 C-54.37299,-55.494508 -55.19616,-54.418055 -55.19616,-52.961677 C-55.19616,-51.030393 -53.803103,-48.909147 -50.573743,-48.909147 C-48.959063,-48.909147 -46.932798,-49.415713 -45.603062,-50.80877 C-44.146684,-51.663601 -42.405362,-52.866696 -40.759022,-54.766319 Z M-51.270272,-54.766319 C-51.270272,-55.304546 -51.586876,-55.684471 -51.998461,-55.874433 C-50.953668,-57.900698 -50.067177,-59.800321 -49.433969,-61.858247 C-49.117365,-56.982547 -48.832422,-56.001075 -48.832422,-54.354734 C-48.832422,-52.138507 -50.193819,-51.410318 -51.586876,-51.410318 C-52.979933,-51.410318 -53.51816,-52.138507 -53.51816,-53.626545 C-53.359858,-53.309941 -52.979933,-53.21496 -52.663329,-53.21496 C-51.840159,-53.21496 -51.270272,-54.00647 -51.270272,-54.766319 Z" fill="#ffffff" fill-opacity="1" />
		<path d="M-32.115736,-64.929305 L-34.268642,-54.766319 C-34.743548,-53.1833 -35.566718,-51.980205 -36.801473,-51.980205 C-37.498002,-51.980205 -37.751285,-52.550092 -37.751285,-53.278281 C-37.751285,-53.563224 -37.719625,-53.848168 -37.656304,-54.164772 L-35.376756,-64.929305 L-39.935852,-64.929305 L-42.088759,-54.766319 C-42.247061,-54.00647 -42.342042,-53.309941 -42.342042,-52.708394 C-42.342042,-50.048921 -40.854003,-48.909147 -38.95438,-48.909147 C-37.624643,-48.909147 -35.851662,-49.320732 -34.268642,-51.916884 C-34.07868,-49.95394 -32.938906,-48.909147 -31.134263,-48.909147 C-29.424602,-48.909147 -26.575167,-49.605676 -24.770525,-54.766319 L-26.100261,-54.766319 C-26.575167,-53.1833 -27.429998,-51.980205 -28.664753,-51.980205 C-29.551244,-51.980205 -29.962829,-52.265148 -29.962829,-53.151639 C-29.962829,-53.436583 -29.931169,-53.753187 -29.836187,-54.164772 L-27.556639,-64.929305 Z" fill="#ffffff" fill-opacity="1" />
		<path d="M-23.314147,-69.140137 C-23.314147,-67.747079 -22.206033,-66.638966 -20.812976,-66.638966 C-19.419919,-66.638966 -18.280145,-67.747079 -18.280145,-69.140137 C-18.280145,-70.533194 -19.419919,-71.672968 -20.812976,-71.672968 C-22.206033,-71.672968 -23.314147,-70.533194 -23.314147,-69.140137 Z M-23.947355,-64.929305 L-26.100261,-54.766319 C-26.258563,-54.00647 -26.353544,-53.309941 -26.353544,-52.708394 C-26.353544,-50.048921 -24.865506,-48.909147 -22.965883,-48.909147 C-21.256221,-48.909147 -18.121843,-49.605676 -16.317201,-54.766319 L-17.646937,-54.766319 C-18.121843,-53.1833 -19.261617,-51.980205 -20.496372,-51.980205 C-21.382863,-51.980205 -21.794448,-52.265148 -21.794448,-53.151639 C-21.794448,-53.436583 -21.762788,-53.753187 -21.667807,-54.164772 L-19.388258,-64.929305 Z" fill="#ffffff" fill-opacity="1" />
		<path d="M-11.061576,-63.662889 L-9.1619522,-63.662889 L-8.9086691,-64.929305 L-10.808293,-64.929305 C-10.206745,-67.77874 -9.7318393,-69.931646 -9.7318393,-69.931646 L-14.417577,-69.298439 L-15.367389,-64.929305 L-16.412182,-64.929305 L-16.665465,-63.662889 L-15.620672,-63.662889 L-17.646937,-54.164772 C-17.773579,-53.594885 -17.836899,-53.024998 -17.836899,-52.486771 C-17.836899,-50.460506 -16.887088,-48.909147 -14.67086,-48.909147 C-13.594407,-48.909147 -12.20135,-49.289072 -11.314859,-52.011865 C-11.568142,-51.916884 -11.916406,-51.916884 -12.138029,-51.916884 C-12.99286,-51.916884 -13.246143,-52.39179 -13.246143,-53.056658 C-13.246143,-53.404922 -13.182822,-53.784847 -13.087841,-54.164772 Z" fill="#ffffff" fill-opacity="1" />
		<path d="M-2.0933102e-06,48.285483 C-45.38574,48.285483 -86.178876,62.452565 -117.2465,86.902204 C-86.44903,110.43784 -45.115591,125.51893 -2.0933102e-06,125.51893 C45.115586,125.51893 86.178877,111.12334 117.2465,86.902204 C86.449026,63.366569 44.845427,48.285483 -2.0933102e-06,48.285483 Z" fill="#345b7d" fill-opacity="1" stroke-width="5.68405" stroke="#345b7d" stroke-linecap="round" stroke-linejoin="round" />
		<path d="M-29.640753,8.6510503 C-29.640753,-1.2282345 -20.925868,-9.2076569 -10.136004,-9.2076569 C0.65385993,-9.2076569 9.3687508,-1.2282345 9.3687508,8.6510503 L9.3687508,15.728036 C9.3687508,25.607319 0.65385993,33.586738 -10.136004,33.586738 C-20.925868,33.586738 -29.640753,25.607319 -29.640753,15.728036 L-29.640753,8.6510503 Z" fill="#dce8eb" fill-opacity="1" />
		<path d="M-11.580314,31.539232 C-11.580314,18.911756 -14.89201,8.7126384 -18.992209,8.7126384 C-23.092407,8.7126384 -26.404106,18.911756 -26.404106,31.539232 L-26.404106,40.584878 C-26.404106,53.212345 -23.092407,63.411462 -18.992209,63.411462 C-14.89201,63.411462 -11.580314,53.212345 -11.580314,40.584878 L-11.580314,31.539232 Z" fill="#dce8eb" fill-opacity="1" />
		<path d="M5.2072231,31.539232 C5.2072231,18.911756 1.8955262,8.7126384 -2.2046719,8.7126384 C-6.3048703,8.7126384 -9.6165692,18.911756 -9.6165692,31.539232 L-9.6165692,40.584878 C-9.6165692,53.212345 -6.3048703,63.411462 -2.2046719,63.411462 C1.8955262,63.411462 5.2072231,53.212345 5.2072231,40.584878 L5.2072231,31.539232 Z" fill="#dce8eb" fill-opacity="1" />
		<path d="M-30.676938,-13.308836 C-30.482545,-13.308836 -30.288152,-13.308836 -30.02896,-13.373636 C-26.918661,-5.338694 -19.078113,0.42831832 -9.941607,0.42831832 C-0.80510049,0.42831832 7.0354478,-5.2738971 10.145744,-13.308836 C10.210541,-13.308836 10.34014,-13.308836 10.404937,-13.308836 C13.320843,-13.308836 15.653567,-16.807924 15.653567,-21.149384 C15.653567,-24.64847 14.098416,-27.564377 12.024885,-28.601144 L12.024885,-38.515223 C13.515239,-38.968809 14.616801,-40.394362 14.616801,-42.01431 C14.616801,-44.023045 12.996853,-45.707791 10.923322,-45.707791 C8.9145832,-45.707791 7.2298386,-44.023045 7.2298386,-42.01431 C7.2298386,-40.394362 8.331406,-38.968809 9.8217549,-38.515223 L9.8217549,-29.702708 C6.5170626,-37.348861 -1.0642931,-42.727087 -9.941607,-42.727087 C-19.078113,-42.727087 -26.918661,-37.024871 -30.02896,-28.925133 C-30.223353,-28.98993 -30.417747,-28.98993 -30.676938,-28.98993 C-33.592844,-28.98993 -35.925569,-25.490844 -35.925569,-21.149384 C-35.925569,-16.807924 -33.592844,-13.308836 -30.676938,-13.308836 Z M-24.845127,-29.249123 C-15.514229,-33.590582 -4.7577743,-33.590582 4.5731254,-29.249123 C5.9338804,-26.8516 6.6466564,-24.06529 6.6466564,-21.149384 C6.6466564,-18.622265 6.0634792,-16.159945 5.0915081,-14.021615 C-4.4985817,-9.3561648 -15.77342,-9.3561648 -25.363511,-14.021615 C-26.400277,-16.095148 -26.918661,-18.557468 -26.918661,-21.084585 C-26.918661,-24.06529 -26.205883,-26.8516 -24.845127,-29.249123 Z" fill="#dce8eb" fill-opacity="1" />
		<path d="M-18.948517,-22.121353 L-15.838218,-20.242213 L-17.717357,-23.417311 L-15.838218,-26.52761 L-18.948517,-24.64847 L-22.058817,-26.52761 L-20.179678,-23.417311 L-22.058817,-20.242213 Z" fill="#dce8eb" fill-opacity="1" />
		<path d="M-11.431958,-16.93752 L-9.0992322,-15.576763 L-10.524787,-17.909489 L-9.0992322,-20.242213 L-11.431958,-18.816658 L-13.829481,-20.242213 L-12.403927,-17.909489 L-13.829481,-15.576763 Z" fill="#dce8eb" fill-opacity="1" />
		<path d="M-9.9365371,-40.140521 C0.30882218,-40.140521 8.6143246,-32.125409 8.6143246,-22.238269 C8.6143246,-12.351129 0.30882218,-4.336019 -9.9365371,-4.336019 C-20.181895,-4.336019 -28.487399,-12.351129 -28.487399,-22.238269 C-28.487399,-32.125409 -20.181895,-40.140521 -9.9365371,-40.140521 Z" fill="#3162a6" fill-opacity="1" />
		<path d="M-25.701541,54.90306 C-26.187773,51.498148 -26.401216,46.702474 -18.540719,48.602323 C-10.101659,50.642008 -9.9406467,58.712401 -14.446476,62.328075 C-19.968629,66.741422 -27.835293,65.391263 -30.670537,64.017022 C-33.501285,62.624178 -34.218188,59.911536 -32.360315,58.864521 C-30.502441,57.8175 -25.228236,58.186742 -25.701541,54.90306 Z" fill="#dce8eb" fill-opacity="1" />
		<path d="M4.5789141,54.903064 C5.0651512,51.498145 5.2785938,46.702471 -2.5819031,48.60232 C-11.020957,50.642003 -11.181971,58.712403 -6.676145,62.328077 C-1.1539915,66.741424 6.7126665,65.391267 9.5479104,64.017026 C12.378657,62.624176 13.095561,59.91154 11.237687,58.864519 C9.3798192,57.817497 4.1056092,58.186746 4.5789141,54.903064 Z" fill="#dce8eb" fill-opacity="1" />
		<path d="M31.740312,8.0823963 C35.534073,8.0823963 38.569082,5.5969765 38.569082,2.5592415 C38.569082,-0.47849353 35.496133,-2.9639133 31.740312,-2.9639133 L4.5769835,-2.9639133 L4.5769835,8.0823963 C4.5769835,8.0823963 31.740312,8.0823963 31.740312,8.0823963 Z" fill="#dce8eb" fill-opacity="1" />
		<path d="M31.81976,62.323777 C31.81976,21.628355 31.81976,-19.437086 31.81976,-60.132509 M30.175945,62.323777 C30.175945,21.628355 30.175945,-19.437086 30.175945,-60.132509" fill="#ffcc1a" fill-opacity="1" stroke-width="1.69752" stroke="#ffcc1a" stroke-linecap="square" stroke-linejoin="miter" />
		<path d="M-51.183978,-4.8690289 C-54.469471,-6.7659093 -55.855156,-10.43585 -54.336289,-13.066606 C-52.817421,-15.697362 -48.91346,-16.313324 -45.660823,-14.435414 L-22.13669,-0.85374918 L-27.659845,8.7126356 C-27.659845,8.7126356 -51.183978,-4.8690289 -51.183978,-4.8690289 Z" fill="#dce8eb" fill-opacity="1" />
		<path d="M-48.249513,-21.36197 C-47.941044,-22.484055 -46.959154,-23.179636 -46.060679,-22.932639 C-45.162205,-22.685643 -44.676949,-21.574665 -44.982332,-20.463801 L-47.190966,-12.42967 L-50.458147,-13.327839 C-50.458147,-13.327839 -48.249513,-21.36197 -48.249513,-21.36197 Z" fill="#dce8eb" fill-opacity="1" />
		<path d="M-51.889377,-21.289527 C-52.254154,-22.394591 -53.26994,-23.039664 -54.154785,-22.747581 C-55.03963,-22.455497 -55.468125,-21.321417 -55.106996,-20.227405 L-52.495195,-12.315147 L-49.277576,-13.377269 C-49.277576,-13.377269 -51.889377,-21.289527 -51.889377,-21.289527 Z" fill="#dce8eb" fill-opacity="1" />
		<path d="M30.15434,-2.7339853 C31.162145,-3.3158419 31.587195,-4.441574 31.121292,-5.2485423 C30.655389,-6.0555106 29.457872,-6.2444534 28.460146,-5.6684157 L21.244261,-1.5023227 L22.938455,1.4321077 C22.938455,1.4321077 30.15434,-2.7339853 30.15434,-2.7339853 Z" fill="#dce8eb" fill-opacity="1" />
		<path d="M31.090704,-58.219567 L31.090704,-58.219567 C29.121896,-58.219567 27.5281,-59.813363 27.5281,-61.782171 L27.5281,-61.782171 C27.5281,-63.750978 29.121896,-65.344775 31.090704,-65.344775 L31.090704,-65.344775 C33.059511,-65.344775 34.653308,-63.750978 34.653308,-61.782171 L34.653308,-61.782171 C34.653308,-59.813363 33.059511,-58.219567 31.090704,-58.219567 Z" fill="#ffcc1a" fill-opacity="1" />
		<path d="M-0.39885441,-32.570712 C0.42222286,-31.148564 -0.065040742,-29.330072 -1.4871883,-28.508995 C-2.9093356,-27.687917 -4.7278284,-28.175181 -5.5489056,-29.597328 C-6.3699828,-31.019476 -5.8827191,-32.837969 -4.4605717,-33.659046 C-3.0384242,-34.480123 -1.2199316,-33.992859 -0.39885441,-32.570712 Z" fill="#ffffff" fill-opacity="1" />
		<path d="M-5.7071749,-27.429609 C-5.2334465,-26.609087 -5.5145779,-25.55989 -6.3350996,-25.086162 C-7.1556211,-24.612434 -8.2048179,-24.893565 -8.6785463,-25.714087 C-9.1522746,-26.534608 -8.8711432,-27.583805 -8.0506216,-28.057533 C-7.2301,-28.531262 -6.1809032,-28.25013 -5.7071749,-27.429609 Z" fill="#ffffff" fill-opacity="1" />
		<path d="M102.89072,-25.995466 L102.89072,-56.40914 C102.89253,-56.40914 102.89433,-56.40914 102.89613,-56.40914 C102.89613,-58.980359 102.89613,-61.519032 102.89613,-64.09025 C79.809592,-64.09025 56.72305,-58.394512 33.71321,-58.394512 C33.71321,-58.357789 33.71321,-58.321065 33.71321,-58.284342 L33.707794,-58.284342 L33.707794,-19.645978 L33.71321,-19.645978 C33.71321,-17.292897 33.71321,-14.942126 33.71321,-12.618619 C56.79975,-12.618619 79.88629,-18.314358 102.89613,-18.314358 C102.89613,-20.885577 102.89613,-23.424248 102.89613,-25.995466 C102.89433,-25.995466 102.89252,-25.995466 102.89072,-25.995466 Z" fill="#bed2d9" fill-opacity="1" />
		<path d="M85.320849,-34.200418 C85.622958,-35.509562 85.774011,-36.869059 85.774011,-38.228556 C85.774011,-40.846845 85.169792,-43.364432 84.162757,-45.579907 C84.011701,-45.479204 83.860648,-45.428853 83.709591,-45.428853 C83.206074,-45.428853 82.853613,-45.831666 82.853613,-46.284831 C82.853613,-46.637294 83.055021,-46.939404 83.407482,-47.090459 C80.386378,-52.327039 74.746984,-55.801308 68.301964,-55.801308 C62.108702,-55.801308 56.670715,-52.629149 53.59926,-47.795383 C53.699963,-47.795383 53.800667,-47.845735 53.90137,-47.845735 C54.706998,-47.845735 55.260867,-47.191163 55.210515,-46.385535 C55.160163,-45.730962 54.706998,-45.177094 53.90137,-45.177094 C53.246798,-45.177094 52.743281,-45.328149 52.541874,-45.93237 C51.434136,-43.61619 50.829915,-41.048252 50.829915,-38.329258 C50.829915,-37.825741 50.829915,-37.372576 50.880267,-36.91941 C51.132025,-37.020114 51.585191,-37.070465 51.83695,-37.070465 C53.498557,-37.120818 54.404888,-35.811672 54.404888,-34.351473 C54.404888,-32.991976 53.397853,-31.884238 52.13906,-31.682832 C54.052425,-27.100824 57.828805,-23.475499 62.561867,-21.864245 C62.66257,-22.720223 63.266791,-23.324446 64.173122,-23.475499 C65.180157,-23.626556 66.086488,-22.619521 66.086488,-21.612487 C66.086488,-21.411079 66.036136,-21.209671 65.985784,-21.058619 C66.74106,-20.957913 67.546688,-20.907562 68.352315,-20.907562 C75.50226,-20.907562 81.645171,-25.187459 84.414516,-31.330369 C84.062056,-31.632479 83.810297,-32.135996 83.810297,-32.639514 C83.709591,-33.344438 84.414516,-34.099714 85.320849,-34.200418 Z M60.396743,-40.595087 C60.396743,-41.652473 61.353426,-42.709859 62.410812,-42.709859 C63.51855,-42.709859 64.475233,-41.85388 64.475233,-40.746142 C64.475233,-39.688755 63.367495,-38.429962 62.310109,-38.429962 C61.20237,-38.480315 60.396743,-39.5377 60.396743,-40.595087 Z M60.749205,-27.956803 C60.044281,-27.805749 59.238653,-28.40997 59.238653,-29.114893 C59.238653,-29.819818 59.591116,-30.47439 60.29604,-30.47439 C61.000964,-30.47439 61.806591,-30.021223 61.806591,-29.3163 C61.75624,-28.561025 61.454129,-28.107858 60.749205,-27.956803 Z M62.410812,-49.003825 C61.454129,-49.003825 60.648501,-49.809452 60.648501,-50.766135 C60.648501,-51.722818 61.605185,-52.528446 62.612219,-52.528446 C63.568902,-52.528446 64.324178,-51.722818 64.324178,-50.715783 C64.324178,-49.759101 63.417846,-49.003825 62.410812,-49.003825 Z M70.164978,-51.168949 C69.661461,-51.168949 69.258647,-51.722818 69.258647,-52.226335 C69.258647,-52.729852 69.661461,-53.082315 70.114625,-53.082315 C70.618142,-53.082315 71.222364,-52.729852 71.222364,-52.226335 C71.272716,-51.722818 70.668495,-51.168949 70.164978,-51.168949 Z M74.898039,-25.086755 C73.387487,-25.086755 71.826585,-25.892383 71.826585,-27.402935 C71.826585,-28.913487 72.783268,-30.272982 74.29382,-30.272982 C75.804372,-30.272982 77.21422,-29.467355 77.21422,-27.956803 C77.21422,-26.446252 76.35824,-25.086755 74.898039,-25.086755 Z M68.906185,-34.905341 C68.906185,-35.610266 69.460053,-36.164134 70.164978,-36.164134 C70.869901,-36.164134 71.725881,-35.660617 71.725881,-34.955694 C71.725881,-34.250769 70.869901,-33.344438 70.164978,-33.344438 C69.460053,-33.394789 68.906185,-34.200418 68.906185,-34.905341 Z M75.099447,-40.9979 C73.135729,-40.9979 71.776234,-42.508452 71.776234,-44.522521 C71.776234,-46.486238 73.73995,-47.99679 75.703668,-47.99679 C77.717737,-47.99679 79.026881,-46.133777 79.026881,-44.170059 C79.026881,-42.15599 77.063165,-40.9979 75.099447,-40.9979 Z" fill="#f7f9fe" fill-opacity="1" />
	</g>
</svg>