<?xml version="1.0" encoding="utf-8" ?>
<!-- Generator: Assembly 1.0 - http://assemblyapp.co -->
<svg version="1.1" xmlns="http://www.w3.org/2000/svg" xmlns:xlink="http://www.w3.org/1999/xlink" width="300" height="168.75" viewBox="0 0 300 168.75">
	<rect x="0" y="0" width="300" height="168.75" fill="#0e2137" />
	<g id="widget" transform="matrix(1,0,0,1,150,84.375)">
		<path d="M-31.205702,-18.571054 C-31.205702,-23.946885 -36.777018,-24.435597 -39.073964,-24.435597 C-45.378348,-24.435597 -50.36321,-20.770257 -50.36321,-15.687653 C-50.36321,-8.5035877 -40.344615,-5.5224449 -40.344615,2.8345292 C-40.344615,6.9397095 -42.739304,9.334398 -46.013674,9.334398 C-49.14143,9.334398 -50.705308,7.0863231 -50.705308,4.6427634 C-50.705308,1.270651 -47.626423,0.048871194 -44.987379,0.048871194 C-45.133992,-2.4924309 -47.577552,-3.1766276 -49.288044,-3.1766276 C-52.709027,-3.1766276 -56.472109,-0.43984074 -56.472109,4.8382482 C-56.472109,10.800534 -51.682732,13.244093 -46.111416,13.244093 C-39.025093,13.244093 -32.378611,9.2366556 -32.378611,1.0262951 C-32.378611,-9.5298827 -43.374629,-10.507307 -43.374629,-17.691372 C-43.374629,-20.623644 -41.566395,-22.138651 -38.87848,-22.138651 C-36.190564,-22.138651 -35.262011,-20.574772 -35.262011,-18.864281 C-35.262011,-17.251531 -36.141693,-15.443297 -37.461215,-14.661358 C-36.825889,-13.92829 -36.092822,-13.635063 -35.21314,-13.635063 C-32.76958,-13.635063 -31.205702,-15.736524 -31.205702,-18.571054 Z" fill="#ffffff" fill-opacity="1" />
		<path d="M-26.22084,-14.026033 L-34.38233,24.435597 L-27.00278,22.676234 L-24.461477,10.751663 C-23.923894,11.680215 -22.750986,12.511026 -20.307426,12.511026 C-10.826414,12.511026 -8.2851124,1.8571054 -8.2851124,-4.7405058 C-8.2851124,-10.556178 -10.924157,-12.462154 -14.247398,-12.462154 C-16.690958,-12.462154 -18.548063,-11.582473 -19.965328,-10.360693 L-19.183389,-14.026033 Z M-21.822433,8.2592317 C-22.94647,8.2592317 -23.484054,7.6727774 -23.679538,7.1351943 L-20.796138,-6.5487399 C-19.867585,-8.1126181 -18.499192,-8.9434284 -17.424026,-8.9434284 C-16.544344,-8.9434284 -14.980466,-8.6502013 -14.980466,-4.8871194 C-14.980466,-0.29322716 -16.690958,8.2592317 -21.822433,8.2592317 Z" fill="#ffffff" fill-opacity="1" />
		<path d="M9.3573885,-12.217798 L8.8198054,-9.6276251 L8.8198054,-9.9697235 C8.8198054,-11.386988 7.6468967,-12.462154 4.8612387,-12.462154 C-3.642349,-12.462154 -7.698658,-1.9548477 -7.698658,4.6427634 C-7.698658,10.458435 -4.5220305,12.511026 -1.1987893,12.511026 C2.2710655,12.511026 4.5680116,10.262951 6.0830186,8.0148757 C6.3762457,10.947147 8.1356087,12.511026 10.872396,12.511026 C13.51144,12.511026 17.909847,11.435859 20.695505,3.4698547 L18.642915,3.4698547 C17.909847,5.9134144 16.590325,8.0637469 14.684349,8.0637469 C13.315955,8.0637469 12.68063,7.330679 12.68063,5.9622856 C12.68063,5.5224449 12.729501,5.0337329 12.876114,4.3984074 L16.39484,-12.217798 Z M6.3762457,-9.4321404 C7.9401239,-9.4321404 8.3799647,-8.1614893 8.3799647,-7.575035 L6.0341474,3.4698547 C5.447693,6.304384 3.3951029,7.7705198 1.9778383,7.7705198 C1.0981568,7.7705198 -0.46572139,7.7216486 -0.46572139,3.9585667 C-0.46572139,-0.63532552 2.2221943,-9.4321404 6.3762457,-9.4321404 Z" fill="#ffffff" fill-opacity="1" />
		<path d="M32.277978,-5.1803465 C32.864433,-4.789377 33.450887,-4.5938922 33.98847,-4.5938922 C35.405735,-4.5938922 36.578643,-5.7668008 36.578643,-8.1614893 C36.578643,-10.409564 35.503477,-12.657639 31.153941,-12.657639 C21.233089,-12.657639 18.00759,-0.92855268 18.00759,4.7405058 C18.00759,10.262951 21.037604,12.511026 25.631496,12.511026 C32.131365,12.511026 36.285416,7.9660046 39.071074,3.4698547 L37.409454,3.4698547 C34.965894,6.2555128 32.620077,8.4058453 28.759252,8.4058453 C26.413435,8.4058453 25.240526,7.6239062 25.240526,4.300665 C25.240526,-1.1240375 28.417154,-10.067466 31.496039,-10.067466 C32.424592,-10.067466 32.864433,-9.2855268 32.864433,-8.0637469 C32.864433,-7.2329366 32.668948,-6.2555128 32.277978,-5.1803465 Z" fill="#ffffff" fill-opacity="1" />
		<path d="M44.007065,4.300665 C44.007065,3.7142107 44.055936,3.030014 44.104807,2.3458173 C49.96935,2.0037189 55.345182,-2.3458173 55.345182,-7.9660046 C55.345182,-10.409564 54.318887,-12.657639 49.96935,-12.657639 C39.950756,-12.657639 36.774128,-0.87968148 36.774128,4.7405058 C36.774128,10.262951 39.804142,12.511026 44.398034,12.511026 C50.897903,12.511026 55.051955,7.9660046 57.837613,3.4698547 L56.175992,3.4698547 C53.732432,6.2555128 51.386615,8.4058453 47.525791,8.4058453 C45.179973,8.4058453 44.007065,7.6239062 44.007065,4.300665 Z M51.5821,-8.0637469 C51.5821,-4.0074379 48.258859,-0.24435597 44.495777,-2.7581226e-14 C45.473201,-4.8382482 47.867889,-10.067466 50.36032,-10.067466 C51.288873,-10.067466 51.5821,-9.2855268 51.5821,-8.0637469 Z" fill="#ffffff" fill-opacity="1" />
		<path d="M74.844788,3.4698547 C73.916235,4.2517938 72.645584,5.1314753 71.326062,5.9134144 C71.472676,5.3269601 71.521547,4.7405058 71.521547,4.0563091 C71.521547,0.83081029 71.032835,-1.0751663 70.44638,-13.732805 L63.213444,-12.755382 C61.698437,-7.9660046 59.939074,-3.1277564 57.202287,1.7104918 C55.882765,2.3458173 54.612114,4.0074379 54.612114,6.2555128 C54.612114,9.2366556 56.762446,12.511026 61.747308,12.511026 C64.239739,12.511026 67.367495,11.729086 69.420085,9.5787539 C71.66816,8.2592317 74.356076,6.4021264 76.897378,3.4698547 Z M60.672142,3.4698547 C60.672142,2.6390445 60.18343,2.0525901 59.548104,1.759363 C61.160854,-1.3683934 62.529247,-4.300665 63.506671,-7.4772926 C63.995383,0.048871194 64.435224,1.5638782 64.435224,4.1051803 C64.435224,7.5261638 62.333762,8.6502013 60.18343,8.6502013 C58.033097,8.6502013 57.202287,7.5261638 57.202287,5.2292177 C57.446643,5.7179296 58.033097,5.8645432 58.521809,5.8645432 C59.79246,5.8645432 60.672142,4.6427634 60.672142,3.4698547 Z" fill="#ffffff" fill-opacity="1" />
		<path d="M90.239214,-12.217798 L86.915973,3.4698547 C86.182905,5.9134144 84.912254,7.7705198 83.006277,7.7705198 C81.931111,7.7705198 81.540141,6.8908383 81.540141,5.7668008 C81.540141,5.3269601 81.589013,4.8871194 81.686755,4.3984074 L85.205481,-12.217798 L78.168029,-12.217798 L74.844788,3.4698547 C74.600432,4.6427634 74.453818,5.7179296 74.453818,6.6464823 C74.453818,10.751663 76.750764,12.511026 79.683036,12.511026 C81.735626,12.511026 84.472413,11.8757 86.915973,7.8682622 C87.2092,10.898276 88.968563,12.511026 91.754221,12.511026 C94.393265,12.511026 98.791673,11.435859 101.57733,3.4698547 L99.524741,3.4698547 C98.791673,5.9134144 97.472151,7.7705198 95.566174,7.7705198 C94.197781,7.7705198 93.562455,7.330679 93.562455,5.9622856 C93.562455,5.5224449 93.611326,5.0337329 93.75794,4.3984074 L97.276666,-12.217798 Z" fill="#ffffff" fill-opacity="1" />
		<path d="M103.82541,-18.717667 C103.82541,-16.567335 105.5359,-14.856843 107.68623,-14.856843 C109.83656,-14.856843 111.59593,-16.567335 111.59593,-18.717667 C111.59593,-20.868 109.83656,-22.627363 107.68623,-22.627363 C105.5359,-22.627363 103.82541,-20.868 103.82541,-18.717667 Z M102.84798,-12.217798 L99.524741,3.4698547 C99.280385,4.6427634 99.133771,5.7179296 99.133771,6.6464823 C99.133771,10.751663 101.43072,12.511026 104.36299,12.511026 C107.00203,12.511026 111.84028,11.435859 114.62594,3.4698547 L112.57335,3.4698547 C111.84028,5.9134144 110.08092,7.7705198 108.17494,7.7705198 C106.80655,7.7705198 106.17122,7.330679 106.17122,5.9622856 C106.17122,5.5224449 106.22009,5.0337329 106.36671,4.3984074 L109.88543,-12.217798 Z" fill="#ffffff" fill-opacity="1" />
		<path d="M122.73856,-10.262951 L125.67083,-10.262951 L126.0618,-12.217798 L123.12953,-12.217798 C124.05808,-16.616206 124.79115,-19.939447 124.79115,-19.939447 L117.55821,-18.962023 L116.09208,-12.217798 L114.47933,-12.217798 L114.08836,-10.262951 L115.70111,-10.262951 L112.57335,4.3984074 C112.37786,5.2780889 112.28012,6.1577704 112.28012,6.9885807 C112.28012,10.116337 113.74626,12.511026 117.16724,12.511026 C118.82886,12.511026 120.97919,11.924571 122.34759,7.7216486 C121.95662,7.8682622 121.41904,7.8682622 121.07694,7.8682622 C119.75741,7.8682622 119.36645,7.1351943 119.36645,6.1088992 C119.36645,5.5713161 119.46419,4.9848617 119.6108,4.3984074 Z" fill="#ffffff" fill-opacity="1" />
		<path d="M-95.271538,31.55002 L-95.271538,31.55002 C-112.70708,31.55002 -126.82156,17.435539 -126.82156,-4.8773808e-07 L-126.82156,-4.8773808e-07 C-126.82156,-17.435537 -112.70708,-31.55002 -95.271538,-31.55002 L-95.271538,-31.55002 C-77.836004,-31.55002 -63.721517,-17.435537 -63.721517,-4.8773808e-07 L-63.721517,-4.8773808e-07 C-63.721517,17.435539 -77.836004,31.55002 -95.271538,31.55002 Z" fill="#011534" fill-opacity="1" stroke-width="0.693738" stroke="#ffcc1a" stroke-linecap="square" stroke-linejoin="miter" />
		<path d="M-95.271538,8.5864285 C-103.74196,8.5864285 -111.35525,12.322425 -117.15346,18.770032 C-111.40567,24.976606 -103.69154,28.953636 -95.271538,28.953636 C-86.851536,28.953636 -79.187822,25.157381 -73.389617,18.770032 C-79.137403,12.563457 -86.901957,8.5864285 -95.271538,8.5864285 Z" fill="#345b7d" fill-opacity="1" stroke-width="1.73734" stroke="#345b7d" stroke-linecap="round" stroke-linejoin="round" />
		<path d="M-111.61512,4.5655355 C-111.61512,1.5459145 -108.9514,-0.89301014 -105.65345,-0.89301014 C-102.35551,-0.89301014 -99.691791,1.5459145 -99.691791,4.5655355 L-99.691791,6.728629 C-99.691791,9.7482492 -102.35551,12.187173 -105.65345,12.187173 C-108.9514,12.187173 -111.61512,9.7482492 -111.61512,6.728629 L-111.61512,4.5655355 Z" fill="#dce8eb" fill-opacity="1" />
		<path d="M-106.09491,11.561349 C-106.09491,7.7017386 -107.10714,4.5843601 -108.36037,4.5843601 C-109.6136,4.5843601 -110.62583,7.7017386 -110.62583,11.561349 L-110.62583,14.326167 C-110.62583,18.185775 -109.6136,21.303153 -108.36037,21.303153 C-107.10714,21.303153 -106.09491,18.185775 -106.09491,14.326167 L-106.09491,11.561349 Z" fill="#dce8eb" fill-opacity="1" />
		<path d="M-100.96377,11.561349 C-100.96377,7.7017386 -101.976,4.5843601 -103.22923,4.5843601 C-104.48246,4.5843601 -105.49469,7.7017386 -105.49469,11.561349 L-105.49469,14.326167 C-105.49469,18.185775 -104.48246,21.303153 -103.22923,21.303153 C-101.976,21.303153 -100.96377,18.185775 -100.96377,14.326167 L-100.96377,11.561349 Z" fill="#dce8eb" fill-opacity="1" />
		<path d="M-111.93183,-2.1465429 C-111.87241,-2.1465429 -111.81299,-2.1465429 -111.73377,-2.1663489 C-110.7831,0.28954528 -108.38663,2.0522429 -105.59404,2.0522429 C-102.80145,2.0522429 -100.40497,0.30935057 -99.454302,-2.1465429 C-99.434497,-2.1465429 -99.394885,-2.1465429 -99.375079,-2.1465429 C-98.483827,-2.1465429 -97.770826,-3.2160454 -97.770826,-4.5430205 C-97.770826,-5.6125222 -98.246161,-6.5037744 -98.879939,-6.820664 L-98.879939,-9.85092 C-98.42441,-9.9895592 -98.087716,-10.425282 -98.087716,-10.920422 C-98.087716,-11.534396 -98.582855,-12.049341 -99.216634,-12.049341 C-99.830609,-12.049341 -100.34555,-11.534396 -100.34555,-10.920422 C-100.34555,-10.425282 -100.00886,-9.9895592 -99.55333,-9.85092 L-99.55333,-7.1573589 C-100.56342,-9.4944193 -102.88067,-11.138284 -105.59404,-11.138284 C-108.38663,-11.138284 -110.7831,-9.3953913 -111.73377,-6.919692 C-111.79319,-6.9394973 -111.85261,-6.9394973 -111.93183,-6.9394973 C-112.82308,-6.9394973 -113.53608,-5.8699952 -113.53608,-4.5430205 C-113.53608,-3.2160454 -112.82308,-2.1465429 -111.93183,-2.1465429 Z M-110.14932,-7.01872 C-107.29732,-8.3456947 -104.00959,-8.3456947 -101.15758,-7.01872 C-100.74167,-6.2859127 -100.5238,-5.4342723 -100.5238,-4.5430205 C-100.5238,-3.7706019 -100.70205,-3.0179894 -100.99914,-2.3644049 C-103.93037,-0.93840183 -107.37654,-0.93840183 -110.30777,-2.3644049 C-110.62466,-2.9981841 -110.7831,-3.7507966 -110.7831,-4.5232144 C-110.7831,-5.4342723 -110.56524,-6.2859127 -110.14932,-7.01872 Z" fill="#dce8eb" fill-opacity="1" />
		<path d="M-108.34701,-4.8401044 L-107.39635,-4.2657418 L-107.97071,-5.2362163 L-107.39635,-6.1868848 L-108.34701,-5.6125222 L-109.29768,-6.1868848 L-108.72332,-5.2362163 L-109.29768,-4.2657418 Z" fill="#dce8eb" fill-opacity="1" />
		<path d="M-106.04957,-3.2556567 L-105.33656,-2.8397387 L-105.77229,-3.5527407 L-105.33656,-4.2657418 L-106.04957,-3.8300185 L-106.78237,-4.2657418 L-106.34665,-3.5527407 L-106.78237,-2.8397387 Z" fill="#dce8eb" fill-opacity="1" />
		<path d="M-105.59249,-10.347695 C-102.46097,-10.347695 -99.922383,-7.8978619 -99.922383,-4.8758399 C-99.922383,-1.853818 -102.46097,0.59601466 -105.59249,0.59601466 C-108.724,0.59601466 -111.26259,-1.853818 -111.26259,-4.8758399 C-111.26259,-7.8978619 -108.724,-10.347695 -105.59249,-10.347695 Z" fill="#3162a6" fill-opacity="1" />
		<path d="M-110.41109,18.702545 C-110.55971,17.661827 -110.62495,16.196021 -108.22237,16.776713 C-105.64296,17.400147 -105.59374,19.866877 -106.97096,20.972014 C-108.65881,22.320961 -111.06327,21.908283 -111.92987,21.488243 C-112.79509,21.062518 -113.01422,20.233394 -112.44635,19.913372 C-111.87849,19.593348 -110.26642,19.706208 -110.41109,18.702545 Z" fill="#dce8eb" fill-opacity="1" />
		<path d="M-101.15581,18.702546 C-101.00719,17.661827 -100.94196,16.19602 -103.34453,16.776712 C-105.92394,17.400145 -105.97316,19.866877 -104.59594,20.972015 C-102.90809,22.320962 -100.50363,21.908284 -99.637031,21.488245 C-98.771808,21.062518 -98.552685,20.233396 -99.120548,19.913372 C-99.688408,19.593348 -101.30048,19.706209 -101.15581,18.702546 Z" fill="#dce8eb" fill-opacity="1" />
		<path d="M-92.853884,4.3917255 C-91.694314,4.3917255 -90.766658,3.6320525 -90.766658,2.7035633 C-90.766658,1.7750742 -91.70591,1.0154012 -92.853884,1.0154012 L-101.1564,1.0154012 L-101.1564,4.3917255 C-101.1564,4.3917255 -92.853884,4.3917255 -92.853884,4.3917255 Z" fill="#dce8eb" fill-opacity="1" />
		<path d="M-92.829601,20.9707 C-92.829601,8.5320717 -92.829601,-4.0196535 -92.829601,-16.458282 M-93.332036,20.9707 C-93.332036,8.5320717 -93.332036,-4.0196535 -93.332036,-16.458282" fill="#ffcc1a" fill-opacity="1" stroke-width="0.51885" stroke="#ffcc1a" stroke-linecap="square" stroke-linejoin="miter" />
		<path d="M-118.19984,0.43309925 C-119.20406,-0.14668564 -119.62759,-1.2684097 -119.16335,-2.0725048 C-118.69911,-2.8766 -117.50585,-3.06487 -116.51168,-2.4908833 L-109.32149,1.6603766 L-111.00965,4.5843592 C-111.00965,4.5843592 -118.19984,0.43309925 -118.19984,0.43309925 Z" fill="#dce8eb" fill-opacity="1" />
		<path d="M-117.30292,-4.6079976 C-117.20863,-4.950965 -116.90852,-5.1635703 -116.6339,-5.0880754 C-116.35928,-5.0125805 -116.21096,-4.6730082 -116.3043,-4.3334707 L-116.97937,-1.8778242 L-117.97799,-2.1523512 C-117.97799,-2.1523512 -117.30292,-4.6079976 -117.30292,-4.6079976 Z" fill="#dce8eb" fill-opacity="1" />
		<path d="M-118.41545,-4.5858552 C-118.52694,-4.92362 -118.83742,-5.1207879 -119.10787,-5.031512 C-119.37833,-4.9422362 -119.5093,-4.5956026 -119.39892,-4.2612157 L-118.60062,-1.8428202 L-117.61715,-2.1674596 C-117.61715,-2.1674596 -118.41545,-4.5858552 -118.41545,-4.5858552 Z" fill="#dce8eb" fill-opacity="1" />
		<path d="M-93.338639,1.0856791 C-93.030602,0.90783363 -92.900684,0.56375161 -93.043088,0.3171003 C-93.185493,0.070448989 -93.551516,0.012698312 -93.856473,0.18876524 L-96.062021,1.462139 L-95.544187,2.3590529 C-95.544187,2.3590529 -93.338639,1.0856791 -93.338639,1.0856791 Z" fill="#dce8eb" fill-opacity="1" />
		<path d="M-93.052438,-15.873588 L-93.052438,-15.873588 C-93.654207,-15.873588 -94.141354,-16.360734 -94.141354,-16.962504 L-94.141354,-16.962504 C-94.141354,-17.564274 -93.654207,-18.05142 -93.052438,-18.05142 L-93.052438,-18.05142 C-92.450668,-18.05142 -91.963522,-17.564274 -91.963522,-16.962504 L-91.963522,-16.962504 C-91.963522,-16.360734 -92.450668,-15.873588 -93.052438,-15.873588 Z" fill="#ffcc1a" fill-opacity="1" />
		<path d="M-102.67728,-8.0339695 C-102.42631,-7.5992876 -102.57525,-7.0434621 -103.00993,-6.7924984 C-103.44461,-6.5415347 -104.00044,-6.6904677 -104.2514,-7.1251496 C-104.50236,-7.5598315 -104.35343,-8.115657 -103.91875,-8.3666207 C-103.48407,-8.6175845 -102.92824,-8.4686514 -102.67728,-8.0339695 Z" fill="#ffffff" fill-opacity="1" />
		<path d="M-104.29978,-6.4625822 C-104.15498,-6.2117883 -104.24091,-5.8910995 -104.4917,-5.7463035 C-104.7425,-5.6015076 -105.06318,-5.6874359 -105.20798,-5.9382298 C-105.35278,-6.1890237 -105.26685,-6.5097126 -105.01605,-6.6545085 C-104.76526,-6.7993044 -104.44457,-6.7133761 -104.29978,-6.4625822 Z" fill="#ffffff" fill-opacity="1" />
		<path d="M-71.106635,-6.0242339 L-71.106635,-15.320228 C-71.106083,-15.320228 -71.105532,-15.320228 -71.104981,-15.320228 C-71.104981,-16.106125 -71.104981,-16.882075 -71.104981,-17.667973 C-78.161423,-17.667973 -85.217865,-15.92706 -92.250864,-15.92706 C-92.250864,-15.915836 -92.250864,-15.904611 -92.250864,-15.893386 L-92.25252,-15.893386 L-92.25252,-4.0835017 L-92.250864,-4.0835017 C-92.250864,-3.3642781 -92.250864,-2.6457609 -92.250864,-1.9355768 C-85.194422,-1.9355768 -78.13798,-3.6764895 -71.104981,-3.6764895 C-71.104981,-4.4623871 -71.104981,-5.2383366 -71.104981,-6.0242339 C-71.105533,-6.0242339 -71.106084,-6.0242339 -71.106635,-6.0242339 Z" fill="#bed2d9" fill-opacity="1" />
		<path d="M-76.476897,-8.5320921 C-76.384557,-8.9322344 -76.338387,-9.347767 -76.338387,-9.7632997 C-76.338387,-10.563584 -76.523068,-11.333089 -76.83087,-12.010253 C-76.877041,-11.979473 -76.92321,-11.964083 -76.969381,-11.964083 C-77.123282,-11.964083 -77.231012,-12.087204 -77.231012,-12.225715 C-77.231012,-12.333445 -77.169452,-12.425786 -77.061721,-12.471956 C-77.985127,-14.072526 -79.708818,-15.134443 -81.67875,-15.134443 C-83.571731,-15.134443 -85.233862,-14.164867 -86.172657,-12.687417 C-86.141877,-12.687417 -86.111097,-12.702808 -86.080317,-12.702808 C-85.834075,-12.702808 -85.664784,-12.502736 -85.680174,-12.256495 C-85.695565,-12.056423 -85.834075,-11.887133 -86.080317,-11.887133 C-86.280388,-11.887133 -86.434289,-11.933303 -86.495849,-12.117984 C-86.834432,-11.41004 -87.019113,-10.625145 -87.019113,-9.7940794 C-87.019113,-9.6401785 -87.019113,-9.501668 -87.003723,-9.3631569 C-86.926772,-9.3939372 -86.788261,-9.4093271 -86.711311,-9.4093271 C-86.203438,-9.4247175 -85.926416,-9.0245747 -85.926416,-8.5782623 C-85.926416,-8.1627296 -86.234218,-7.8241474 -86.61897,-7.7625874 C-86.034147,-6.3620885 -84.87989,-5.2540015 -83.433221,-4.761519 C-83.402441,-5.0231501 -83.217759,-5.2078319 -82.940738,-5.2540015 C-82.632936,-5.3001723 -82.355914,-4.9923704 -82.355914,-4.6845685 C-82.355914,-4.6230079 -82.371304,-4.5614473 -82.386694,-4.5152777 C-82.155843,-4.4844968 -81.909601,-4.4691069 -81.66336,-4.4691069 C-79.477966,-4.4691069 -77.600375,-5.777265 -76.75392,-7.6548566 C-76.86165,-7.747197 -76.9386,-7.9010979 -76.9386,-8.0549989 C-76.969381,-8.2704604 -76.75392,-8.5013118 -76.476897,-8.5320921 Z M-84.094995,-10.486634 C-84.094995,-10.809826 -83.802583,-11.133018 -83.479391,-11.133018 C-83.140809,-11.133018 -82.848397,-10.871386 -82.848397,-10.532804 C-82.848397,-10.209612 -83.186979,-9.8248597 -83.510171,-9.8248597 C-83.848753,-9.8402502 -84.094995,-10.163442 -84.094995,-10.486634 Z M-83.987264,-6.6237202 C-84.202725,-6.57755 -84.448967,-6.7622313 -84.448967,-6.9776922 C-84.448967,-7.1931538 -84.341236,-7.3932249 -84.125775,-7.3932249 C-83.910314,-7.3932249 -83.664072,-7.2547138 -83.664072,-7.0392529 C-83.679462,-6.8084014 -83.771803,-6.6698903 -83.987264,-6.6237202 Z M-83.479391,-13.05678 C-83.771803,-13.05678 -84.018044,-13.303021 -84.018044,-13.595433 C-84.018044,-13.887845 -83.725632,-14.134086 -83.41783,-14.134086 C-83.125419,-14.134086 -82.894567,-13.887845 -82.894567,-13.580043 C-82.894567,-13.287631 -83.171589,-13.05678 -83.479391,-13.05678 Z M-81.109316,-13.718554 C-81.263217,-13.718554 -81.386338,-13.887845 -81.386338,-14.041746 C-81.386338,-14.195647 -81.263217,-14.303377 -81.124707,-14.303377 C-80.970806,-14.303377 -80.786124,-14.195647 -80.786124,-14.041746 C-80.770734,-13.887845 -80.955415,-13.718554 -81.109316,-13.718554 Z M-79.662648,-5.7464847 C-80.124351,-5.7464847 -80.601443,-5.9927265 -80.601443,-6.4544294 C-80.601443,-6.9161322 -80.309031,-7.3316643 -79.847328,-7.3316643 C-79.385626,-7.3316643 -78.954703,-7.085423 -78.954703,-6.6237202 C-78.954703,-6.1620173 -79.216335,-5.7464847 -79.662648,-5.7464847 Z M-81.494069,-8.7475531 C-81.494069,-8.9630147 -81.324778,-9.1323055 -81.109316,-9.1323055 C-80.893855,-9.1323055 -80.632224,-8.9784045 -80.632224,-8.7629436 C-80.632224,-8.547482 -80.893855,-8.2704604 -81.109316,-8.2704604 C-81.324778,-8.2858503 -81.494069,-8.5320921 -81.494069,-8.7475531 Z M-79.601087,-10.609755 C-80.201301,-10.609755 -80.616833,-11.071457 -80.616833,-11.687061 C-80.616833,-12.287275 -80.01662,-12.748978 -79.416406,-12.748978 C-78.800802,-12.748978 -78.40066,-12.179544 -78.40066,-11.579331 C-78.40066,-10.963727 -79.000873,-10.609755 -79.601087,-10.609755 Z" fill="#f7f9fe" fill-opacity="1" />
	</g>
</svg>