<?xml version="1.0" encoding="UTF-8"?>
<svg width="289.26" height="272.22" enable-background="new 0 0 289.264 272.222" viewBox="0 0 289.264 272.222" xmlns="http://www.w3.org/2000/svg">
 <path d="m42.339,49.98s-9.918-1.387-19.569.22c-3.824.638-16.566,4.462-18.746,7.604-1.018,25.147 2.18,48.465 2.18,48.465l22.062,2.613" fill="#fff"/>
 <path d="m42.339,49.98s-9.918-1.387-19.569.22c-3.824.638-16.566,4.462-18.746,7.604-1.018,25.147 2.18,48.465 2.18,48.465l22.062,2.613" fill="none" stroke="#010101" stroke-linecap="round" stroke-linejoin="round" stroke-miterlimit="14.3" stroke-width="3.42"/>
 <path d="m16.046,57.828-7.655.012c-3.664.009-6.681,3.026-6.681,6.688v37.621c0,3.664 3.017,6.672 6.681,6.664l15.319-.026c3.664-.009 6.673-3.021 6.673-6.688v-37.612c0-3.66-3.009-6.668-6.673-6.664l-7.664.014" fill="#fff"/>
 <path d="m16.046,57.828-7.655.012c-3.664.009-6.681,3.026-6.681,6.688v37.621c0,3.664 3.017,6.672 6.681,6.664l15.319-.026c3.664-.009 6.673-3.021 6.673-6.688v-37.612c0-3.66-3.009-6.668-6.673-6.664l-7.664.014z" fill="none" stroke="#010101" stroke-linecap="round" stroke-linejoin="round" stroke-miterlimit="14.3" stroke-width="3.42"/>
 <path d="m5.763 73.719c1.034 5.086 6.173 8.336 11.461 7.258s8.733-6.086 7.698-11.168c-1.043-5.086-6.176-8.332-11.461-7.254-5.284 1.082-8.736 6.082-7.698 11.164" fill="#aaabaa"/>
 <path d="m5.763 73.719c1.034 5.086 6.173 8.336 11.461 7.258s8.733-6.086 7.698-11.168c-1.043-5.086-6.176-8.332-11.461-7.254-5.284 1.082-8.736 6.082-7.698 11.164z" fill="none" stroke="#010101" stroke-linecap="round" stroke-linejoin="round" stroke-miterlimit="14.3" stroke-width="3.42"/>
 <path d="m4.912 97.18c1.043 5.086 6.173 8.332 11.461 7.254s8.741-6.082 7.702-11.164c-1.039-5.086-6.172-8.332-11.461-7.258-5.288 1.086-8.732 6.09-7.702 11.172" fill="#aaabaa"/>
 <path d="m4.912 97.18c1.043 5.086 6.173 8.332 11.461 7.254s8.741-6.082 7.702-11.164c-1.039-5.086-6.172-8.332-11.461-7.258-5.288 1.086-8.732 6.09-7.702 11.172z" fill="none" stroke="#010101" stroke-linecap="round" stroke-linejoin="round" stroke-miterlimit="14.3" stroke-width="3.42"/>
 <path d="m13.177,72.504c0,4.22 2.142,7.646 4.78,7.646s4.781-3.43 4.781-7.646-2.146-7.647-4.781-7.647c-2.639-.002-4.78,3.427-4.78,7.647" fill="#010101"/>
 <path d="m13.177,72.504c0,4.22 2.142,7.646 4.78,7.646s4.781-3.43 4.781-7.646-2.146-7.647-4.781-7.647c-2.639-.002-4.78,3.427-4.78,7.647z" fill="none" stroke="#010101" stroke-linecap="round" stroke-linejoin="round" stroke-miterlimit="14.3" stroke-width="3.42"/>
 <path d="m12.546,94.805c0,4.219 2.142,7.647 4.776,7.647s4.78-3.432 4.78-7.647c0-4.224-2.146-7.647-4.78-7.647-2.636.001-4.776,3.426-4.776,7.649" fill="#010101"/>
 <path d="m12.546,94.805c0,4.219 2.142,7.647 4.776,7.647s4.78-3.432 4.78-7.647c0-4.224-2.146-7.647-4.78-7.647-2.636.001-4.776,3.426-4.776,7.649z" fill="none" stroke="#010101" stroke-linecap="round" stroke-linejoin="round" stroke-miterlimit="14.3" stroke-width="3.42"/>
 <path d="m238.14,96.895s-18.728-35.366-84.569-33.625c-65.854,1.734-97.875,26.938-97.875,26.938-1.402-.397-12.074,29.242-11.207,57.203 .409,13.068 3.564,47.224 3.564,47.224s3.539,54.508 96.371,56.038c64.966,1.07 89.72-47.207 89.72-47.207l9.871-37.562s2.366-23.957 2.423-32.197c.19-29.13-9.89-37.829-8.29-36.805" fill="#fff"/>
 <path d="m242.25 99.965-4-21.384s-17.262-26.573-83.267-29.112-94.592 27.051-94.592 27.051l-2.902 13.688" fill="#fff"/>
 <path d="m246.96,50.008s9.918-1.392 19.574.215c3.819.641 16.565,4.461 18.746,7.604 1.012,25.15-2.185,48.465-2.185,48.465l-22.057,2.611" fill="#fff"/>
 <path d="m246.96,50.008s9.918-1.392 19.574.215c3.819.641 16.565,4.461 18.746,7.604 1.012,25.15-2.185,48.465-2.185,48.465l-22.057,2.611" fill="none" stroke="#010101" stroke-linecap="round" stroke-linejoin="round" stroke-miterlimit="14.3" stroke-width="3.42"/>
 <path d="m273.22,57.887 7.664.016c3.656.005 6.674,3.027 6.674,6.686v37.621c0,3.664-3.018,6.672-6.674,6.664l-15.318-.027c-3.664-.004-6.682-3.022-6.682-6.688v-37.612c0-3.66 3.018-6.668 6.682-6.66l7.66.009" fill="#fff"/>
 <path d="m36.546 208.08-3.643-9.186s-10.77-22.733-3.594-104.01c6.062-68.633 68.532-94.053 124.08-89.749 81.664 6.327 111.65 46.606 109.26 127.98-1.229 41.566-6.586 67.004-6.586 67.004l-3.59 9.57 8.451 3.461" fill="#fff"/>
 <path d="m259.22,213.15 .01-.61 .05-.6 .07-.58 .09-.55 .13-.51 .15-.46 .16-.4 .19-.34 .2-.28 .21-.19 .22-.12 .22-.04 .23.04 .22.12 .21.19 .2.28 .19.34 .17.4 .14.46 .12.51 .1.55 .08.58 .04.6 .02.61-.02.61-.04.6-.08.58-.1.55-.12.51-.14.46-.17.4-.19.34-.2.28-.21.19-.22.12-.23.04-.22-.04-.22-.12-.21-.19-.2-.28-.19-.34-.16-.4-.15-.46-.13-.51-.09-.55-.07-.58-.05-.6-.01-.61" fill="#010101"/>
 <path d="m34.83,208.08 .021-.61 .039-.6 .074-.58 .098-.55 .125-.51 .147-.45 .168-.41 .185-.34 .203-.27 .211-.2 .218-.12 .229-.04 .223.04 .218.12 .216.2 .194.27 .188.34 .164.41 .147.45 .125.51 .103.55 .07.58 .047.6 .008.61-.008.61-.047.61-.07.58-.103.54-.125.51-.147.47-.164.4-.188.34-.194.27-.216.2-.218.11-.223.05-.229-.05-.218-.11-.211-.2-.203-.27-.185-.34-.168-.4-.147-.47-.125-.51-.098-.54-.074-.58-.039-.61z" fill="#010101"/>
 <path d="m35.382,211.53-3.61-9.12-.085-.21-.083-.19-.328-.85-.082-.24-.5-1.5-.086-.27-.625-2.19-.076-.3-.703-2.93-.074-.32-.754-3.73-.059-.34-.754-4.57-.048-.36-.711-5.47 .234,1.21-.273-1.57-.625-6.42 .148,1-.176-1.36-.5-7.44 .065.67-.082-1.02-.332-8.49 .008.19-.016-.52-.121-9.6v-.37 .06l.137-10.77 .039-.9-.035.61 .427-11.98 .129-1.36-.113,1.09 .761-13.25 .022-.25 1.141-14.561 .328-1.913 .16-.478-.41,1.656 1.785-12.363 .607-2.121 .2-.328-.603,1.418 3.009-11.375 .836-1.68-.604.977 4.149-10.397 .207-.449 5.189-9.449 .172-.272 6.146-8.512 .142-.177 7.004-7.602 .116-.113 7.764-6.703 .098-.074 8.437-5.827 .082-.056 9.022-4.969 .068-.039 9.51-4.137 .058-.027 9.906-3.324 .05-.015 10.2-2.528 .05-.011 10.41-1.75 .05-.009 10.53-.995 .03-.005 10.56-.262h.04l10.48.457h.04l14.71,1.586 .05.009 13.52,2.396 .06.007 12.37,3.211 .06.017 11.25,4.035 .07.03 10.15,4.88 .09.047 9.08,5.72 .1.082 8.05,6.577 .12.121 7.02,7.448 .15.185 6.04,8.328 .18.276 5.08,9.224 .19.401 4.15,10.12 .2.557 3.25,11.027-.42-1.021 .59,1.723 2.38,11.949-.36-1.258 .48,2.047 1.54,12.879-.2-1.16 .11.56 .16,1.39 .72,13.83-.03-.44 .04.63 .01.52-.06,14.78-.03.73-.05.62 .07-.86-.64,14.81-.16,1.48 .14-1.16-.91,13.2-.02.29-1.08,11.46-.03.27-1.13,9.63-.03.24-1.07,7.67-.03.22-.91,5.61-.03.19-.62,3.45-.03.16-.24,1.17-.75,1.97 .45-.85-1.12,2.99 5.04,2.06-.5,9.26-8.46-3.46 .14.04-.23-.09-.23-.17-.21-.26-.2-.33-.18-.4-.16-.47-.14-.52-.1-.57-.08-.6-.05-.63-.02-.63 .02-.64 .05-.62 .08-.61 .1-.56 .14-.52 .16-.47 .18-.41 .2-.33-.41.81 3.4-9.08 .1-.47 .59-3.28 .88-5.41 1.03-7.45 1.11-9.37 1.05-11.18 .89-12.88 .62-14.41 .06-14.17-.69-13.06-1.43-12.086-2.24-11.203-3.07-10.401-3.95-9.642-4.9-8.882-5.87-8.099-6.89-7.301-7.92-6.485-8.98-5.66-10.07-4.836-11.18-4.011-12.32-3.196-13.48-2.386-14.66-1.579-10.45-.457-10.5.267-10.49.991-10.36,1.742-10.15,2.517-9.838,3.31-9.444,4.112-8.944,4.931-8.354,5.77-7.659,6.616-6.867,7.453-5.984,8.293-4.996,9.095-3.922,9.836-2.785,10.508-1.647,11.453-1.105,14.06-.746,12.98-.418,11.69-.133,10.45 .117,9.27 .315,8.15 .478,7.08 .59,6.06 .656,5.12 .695,4.22 .68,3.4 .641,2.62 .539,1.9 .414,1.25 .25.64 .078.19 .055.14 3.642,9.18z" fill="#010101"/>
 <path d="m239.24,96.691s-18.728-35.37-84.573-33.633c-65.848,1.739-97.87,26.945-97.87,26.945-1.4-.401-12.072,29.232-11.207,57.199 .406,13.072 3.565,47.219 3.565,47.219s3.535,54.513 96.371,56.042c64.961,1.074 89.72-47.207 89.72-47.207l9.866-37.562s2.371-23.961 2.423-32.199c.18-29.13-9.9-37.822-8.3-36.799" fill="#fff"/>
 <path d="m238.14,96.895s-18.728-35.366-84.569-33.625c-65.854,1.734-97.875,26.938-97.875,26.938-1.402-.397-12.074,29.242-11.207,57.203 .409,13.068 3.564,47.224 3.564,47.224s3.539,54.508 96.371,56.038c64.966,1.07 89.72-47.207 89.72-47.207l9.871-37.562s2.366-23.957 2.423-32.197c.19-29.13-9.89-37.829-8.29-36.805" fill="#fff"/>
 <path d="m242.25 99.965-4-21.384s-17.262-26.573-83.267-29.112-94.592 27.051-94.592 27.051l-2.902 13.688" fill="#fff"/>
 <path d="m246.96,50.008s9.918-1.392 19.574.215c3.819.641 16.565,4.461 18.746,7.604 1.012,25.15-2.185,48.465-2.185,48.465l-22.057,2.611" fill="#fff"/>
 <g fill="none">
  <path d="m246.96,50.008s9.918-1.392 19.574.215c3.819.641 16.565,4.461 18.746,7.604 1.012,25.15-2.185,48.465-2.185,48.465l-22.057,2.611" stroke="#010101" stroke-linecap="round" stroke-linejoin="round" stroke-miterlimit="11.5" stroke-width="3.42"/>
  <path d="m239.24,96.691s-18.728-35.37-84.573-33.633c-65.848,1.739-97.87,26.945-97.87,26.945-1.4-.401-12.072,29.232-11.207,57.199 .406,13.072 3.565,47.219 3.565,47.219s3.535,54.513 96.371,56.042c64.961,1.074 89.72-47.207 89.72-47.207l9.866-37.562s2.371-23.961 2.423-32.199c.18-29.13-9.9-37.822-8.3-36.799"/>
 </g>
 <path d="m36.546 208.08-3.643-9.186s-10.77-22.733-3.594-104.01c6.062-68.633 68.532-94.053 124.08-89.749 81.664 6.327 111.65 46.606 109.26 127.98-1.229 41.566-6.586 67.004-6.586 67.004l-3.59 9.57 8.451 3.461" fill="#fff"/>
 <path d="m259.22,213.15 .01-.61 .05-.6 .07-.58 .09-.55 .13-.51 .15-.46 .16-.4 .19-.34 .2-.28 .21-.19 .22-.12 .22-.04 .23.04 .22.12 .21.19 .2.28 .19.34 .17.4 .14.46 .12.51 .1.55 .08.58 .04.6 .02.61-.02.61-.04.6-.08.58-.1.55-.12.51-.14.46-.17.4-.19.34-.2.28-.21.19-.22.12-.23.04-.22-.04-.22-.12-.21-.19-.2-.28-.19-.34-.16-.4-.15-.46-.13-.51-.09-.55-.07-.58-.05-.6-.01-.61" fill="#231f20"/>
 <path d="m34.83,208.08 .021-.61 .039-.6 .074-.58 .098-.55 .125-.51 .147-.45 .168-.41 .185-.34 .203-.27 .211-.2 .218-.12 .229-.04 .223.04 .218.12 .216.2 .194.27 .188.34 .164.41 .147.45 .125.51 .103.55 .07.58 .047.6 .008.61-.008.61-.047.61-.07.58-.103.54-.125.51-.147.47-.164.4-.188.34-.194.27-.216.2-.218.11-.223.05-.229-.05-.218-.11-.211-.2-.203-.27-.185-.34-.168-.4-.147-.47-.125-.51-.098-.54-.074-.58-.039-.61z" fill="#231f20"/>
 <path d="m35.382,211.53-3.61-9.12-.085-.21-.083-.19-.328-.85-.082-.24-.5-1.5-.086-.27-.625-2.19-.076-.3-.703-2.93-.074-.32-.754-3.73-.059-.34-.754-4.57-.048-.36-.711-5.47 .234,1.21-.273-1.57-.625-6.42 .148,1-.176-1.36-.5-7.44 .065.67-.082-1.02-.332-8.49 .008.19-.016-.52-.121-9.6v-.37 .06l.137-10.77 .039-.9-.035.61 .427-11.98 .129-1.36-.113,1.09 .761-13.25 .022-.25 1.141-14.561 .328-1.913 .16-.478-.41,1.656 1.785-12.363 .607-2.121 .2-.328-.603,1.418 3.009-11.375 .836-1.68-.604.977 4.149-10.397 .207-.449 5.189-9.449 .172-.272 6.146-8.512 .142-.177 7.004-7.602 .116-.113 7.764-6.703 .098-.074 8.437-5.827 .082-.056 9.022-4.969 .068-.039 9.51-4.137 .058-.027 9.906-3.324 .05-.015 10.2-2.528 .05-.011 10.41-1.75 .05-.009 10.53-.995 .03-.005 10.56-.262h.04l10.48.457h.04l14.71,1.586 .05.009 13.52,2.396 .06.007 12.37,3.211 .06.017 11.25,4.035 .07.03 10.15,4.88 .09.047 9.08,5.72 .1.082 8.05,6.577 .12.121 7.02,7.448 .15.185 6.04,8.328 .18.276 5.08,9.224 .19.401 4.15,10.12 .2.557 3.25,11.027-.42-1.021 .59,1.723 2.38,11.949-.36-1.258 .48,2.047 1.54,12.879-.2-1.16 .11.56 .16,1.39 .72,13.83-.03-.44 .04.63 .01.52-.06,14.78-.03.73-.05.62 .07-.86-.64,14.81-.16,1.48 .14-1.16-.91,13.2-.02.29-1.08,11.46-.03.27-1.13,9.63-.03.24-1.07,7.67-.03.22-.91,5.61-.03.19-.62,3.45-.03.16-.24,1.17-.75,1.97 .45-.85-1.12,2.99 5.04,2.06-.5,9.26-8.46-3.46 .14.04-.23-.09-.23-.17-.21-.26-.2-.33-.18-.4-.16-.47-.14-.52-.1-.57-.08-.6-.05-.63-.02-.63 .02-.64 .05-.62 .08-.61 .1-.56 .14-.52 .16-.47 .18-.41 .2-.33-.41.81 3.4-9.08 .1-.47 .59-3.28 .88-5.41 1.03-7.45 1.11-9.37 1.05-11.18 .89-12.88 .62-14.41 .06-14.17-.69-13.06-1.43-12.086-2.24-11.203-3.07-10.401-3.95-9.642-4.9-8.882-5.87-8.099-6.89-7.301-7.92-6.485-8.98-5.66-10.07-4.836-11.18-4.011-12.32-3.196-13.48-2.386-14.66-1.579-10.45-.457-10.5.267-10.49.991-10.36,1.742-10.15,2.517-9.838,3.31-9.444,4.112-8.944,4.931-8.354,5.77-7.659,6.616-6.867,7.453-5.984,8.293-4.996,9.095-3.922,9.836-2.785,10.508-1.647,11.453-1.105,14.06-.746,12.98-.418,11.69-.133,10.45 .117,9.27 .315,8.15 .478,7.08 .59,6.06 .656,5.12 .695,4.22 .68,3.4 .641,2.62 .539,1.9 .414,1.25 .25.64 .078.19 .055.14 3.642,9.18z" fill="#231f20"/>
 <path d="m245.38 201.94s6.091-16.146 8.353-53.829c2.043-33.986-13.642-61.74-13.642-61.74s-24.022-32.496-97.009-32.496c-72.985 0-95.056 32.5-95.056 32.5s-10.366 27.318-12.062 55.021c-1.693 27.703 5.272 55.777 5.272 55.777" fill="none" stroke="#010101" stroke-linecap="round" stroke-linejoin="round" stroke-miterlimit="11.5" stroke-width="2.564"/>
 <path d="m35.643,208.98s.871,6.234 4.694,13.242c6.116,11.219 12.108,19.115 12.108,19.115l1.836,15.713 32.896,13.461s17.022-5.6 25.798-5.6c8.772,0 31.219,2.715 50.957-.172 19.732-2.885 45.448-14.607 57.996-21.492 19.75-10.826 30.819-31.383 30.819-31.383" fill="#fff"/>
 <path d="m35.643,208.98s.871,6.234 4.694,13.242c6.116,11.219 12.108,19.115 12.108,19.115l1.836,15.713 32.896,13.461s17.022-5.6 25.798-5.6c8.772,0 31.219,2.715 50.957-.172 19.732-2.885 45.448-14.607 57.996-21.492 19.75-10.826 30.819-31.383 30.819-31.383" fill="none" stroke="#010101" stroke-linecap="round" stroke-linejoin="round" stroke-miterlimit="11.5" stroke-width="3.42"/>
 <path d="m245.31 201.48-5.979 15.557s-32.293 44.529-110.68 39.479c-71.293-4.598-84.353-44.271-84.353-44.271l-3.935-19.336" fill="#fff"/>
 <path d="m245.31 201.48-5.979 15.557s-32.293 44.529-110.68 39.479c-71.293-4.598-84.353-44.271-84.353-44.271l-3.935-19.336" fill="none" stroke="#010101" stroke-linecap="round" stroke-linejoin="round" stroke-miterlimit="11.5" stroke-width="2.564"/>
 <path d="m232.07,91.5-.35-.261-1.06-.748-1.8-1.168-2.53-1.522-3.29-1.805-4.04-2.007-4.81-2.137-5.56-2.193-6.34-2.17-7.12-2.087-7.89-1.913-8.7-1.677-9.47-1.359-10.28-.969-11.08-.507-11.89.027-11.71.555-10.55.98-9.45,1.336-8.41,1.633-7.406,1.858-6.469,2.025-5.582,2.129-4.754,2.164-3.977,2.136-3.256,2.039-2.587,1.882-1.977,1.661-1.425,1.38-.919,1.019-.484.608-.136.2-.575.539 .18-.116-.032.023-.183.34-.524,1.289-.675,1.925-1.648,5.531-1.817,7.25-1.801,8.57-1.609,9.5-1.227,10.04-.68,10.18 .048,8.66 .605,9.43 .996,9.6 1.211,9.16 1.246,8.14 1.113,6.52 .443,2.47 .347,1.85 .218,1.15 .032.14 .043.13 .433,1.11 .863,1.86 1.391,2.47 2.005,2.98 2.717,3.37 3.508,3.63 4.406,3.77 5.375,3.79 6.446,3.67 7.602,3.44 8.836,3.07 10.169,2.59 11.59,1.96 13.09,1.23 14.67.36 12.17-.57 11.16-1.43 10.19-2.17 9.24-2.79 8.33-3.28 7.45-3.64 6.59-3.88 5.77-3.99 4.98-3.98 4.2-3.84 3.48-3.57 2.76-3.19 2.09-2.68 1.45-2.04 .82-1.28 .03-.04 2.07-8.08 1.59-7.74 1.12-7.24 .74-7.03 .47-7.12 .29-7.49 .21-8.1 .21-8.79-.44-10.16-1.27-9.34-1.84-8.43-2.14-7.31-2.14-6.003-1.87-4.5-1.32-2.808-.25-.48-.02-.012 1.36-5.454 .37.274-.18-.109 .22.14 .55.719 .53,1.015 .05.097 1.37,2.931 .06.137 1.94,4.652 .06.176 2.22,6.205 .07.22 2.21,7.57-.24-.62 .31.91 1.91,8.75-.11-.44 .18.81 1.33,9.75-.01-.1 .05.56 .46,10.58v.04l.01.31-.23,8.97l-.2,8.14v.07l-.3,7.59v.14l-.49,7.28-.01.2-.77,7.25-.03.23-1.16,7.48-.04.23-1.64,7.96-.04.2-2.23,8.71-.36.9-.17.26 .15-.24-.28.48-.05.09-.88,1.37-.06.08-1.51,2.14-.07.08-2.15,2.76-.07.09-2.84,3.27-.07.08-3.55,3.66-.08.07-4.28,3.91-.08.07-5.06,4.04-.08.06-5.85,4.05-.09.05-6.67,3.93-.1.05-7.53,3.68-.08.04-8.42,3.31-.08.03-9.33,2.81-.09.03-10.26,2.19-.09.01-11.24,1.45-.08.01-12.24.56-.07.01-14.74-.37h-.07l-13.16-1.24-.07-.01-11.67-1.98-.08-.02-10.251-2.6-.09-.03-8.932-3.1-.095-.04-7.703-3.48-.098-.05-6.55-3.74-.11-.06-5.492-3.87-.118-.09-4.515-3.87-.117-.11-3.633-3.75-.117-.14-2.836-3.52-.116-.16-2.125-3.15-.111-.18-1.496-2.67-.104-.2-.962-2.06-.094-.21-.511-1.33-.075-.2-.147-.47 .147.39-.281-.89-.077-.41-.005-.01-.227-1.18-.003-.03-.352-1.87-.008-.03-.449-2.5-.008-.05-1.121-6.58-.012-.09-1.261-8.21-.016-.11-1.227-9.28-.016-.14-1.011-9.77-.016-.19-.621-9.67 .012.12-.019-.42-.054-9.01 .002-.21 .009-.16 .698-10.5 .028-.3v.02l1.254-10.29 .035-.22 1.642-9.7 .034-.18 1.841-8.74 .039-.17 1.862-7.42 .047-.18 1.703-5.711 .056-.175 .733-2.106 .071-.176 .628-1.539 .145-.309 .5-.929 .391-.539 .211-.18-.052.035 .345-.266-.395.422 .184-.254 .082-.109 .562-.719 .09-.105 1.011-1.121 .087-.09 1.511-1.461 .09-.074 2.058-1.735 .082-.066 2.672-1.941 .082-.055 3.337-2.094 .07-.044 4.05-2.17 .075-.036 4.824-2.195 .062-.031 5.653-2.154 .059-.018 6.534-2.043 .055-.016 7.469-1.875 .051-.012 8.456-1.64 .05-.012 9.5-1.341 .05-.007 10.6-.984h.04l11.75-.563h.05l11.94-.03h.04l11.14.511 .04.004 10.33.976 .04.004 9.54,1.368 .04.007 8.74,1.684 .04.012 7.95,1.925 .05.011 7.16,2.099 .05.015 6.38,2.192 .05.015 5.62,2.211 .04.02 4.84,2.155 .05.025 4.09,2.027 .05.023 3.33,1.829 .04.023 2.58,1.551 .05.022 1.83,1.204 .05.028 1.09.768 .04.032 .37.274-1.36,5.453" fill="#010101"/>
 <path d="m193.66,15.375s5.577,11.16 5.577,21.396c0,10.229-.93,23.883-.93,23.883l9.301,4.312s1.859-7.738.936-19.824c-.936-12.09-5.582-26.039-5.582-26.039" fill="none" stroke="#010101" stroke-linecap="round" stroke-linejoin="round" stroke-miterlimit="11.5" stroke-width="2.564"/>
 <path d="m89.8,16.301s-5.582,11.16-5.582,21.387 .934,24.522.934,24.522l-9.301,3.668s-1.863-7.729-.93-19.819 5.576-26.039 5.576-26.039" fill="none" stroke="#010101" stroke-linecap="round" stroke-linejoin="round" stroke-miterlimit="11.5" stroke-width="2.564"/>
 <path d="m33.619,119.99-14.47.557s-4.254,9.063-3.448,23.313c.798,14.255 4.436,23.781 4.436,23.781l15.395-.5s-1.825-8.492-2.114-23.645c-.284-15.15.201-23.51.201-23.51" fill="#fff"/>
 <path d="m33.619,119.99-14.47.557s-4.254,9.063-3.448,23.313c.798,14.255 4.436,23.781 4.436,23.781l15.395-.5s-1.825-8.492-2.114-23.645c-.284-15.15.201-23.51.201-23.51z" fill="none" stroke="#010101" stroke-linecap="round" stroke-linejoin="round" stroke-miterlimit="11.5" stroke-width="3.42"/>
 <path d="m39.373,143.17c.238,12.737-1.655,23.121-4.219,23.168-2.57.047-4.845-10.259-5.078-22.996-.241-12.737 1.647-23.12 4.216-23.168s4.84,10.26 5.081,23" fill="#fff"/>
 <path d="m39.373,143.17c.238,12.737-1.655,23.121-4.219,23.168-2.57.047-4.845-10.259-5.078-22.996-.241-12.737 1.647-23.12 4.216-23.168s4.84,10.26 5.081,23z" fill="none" stroke="#010101" stroke-linecap="round" stroke-linejoin="round" stroke-miterlimit="11.5" stroke-width="3.42"/>
 <path d="m40.037,127.35-3.952.686s-1.276,7.611-1.393,15.297c-.107,7.685.938,15.435.938,15.435l3.953-.688 .454-30.74" fill="#010101"/>
 <path d="m40.037,127.35-3.952.686s-1.276,7.611-1.393,15.297c-.107,7.685.938,15.435.938,15.435l3.953-.688 .454-30.74z" fill="none" stroke="#010101" stroke-linecap="round" stroke-linejoin="round" stroke-miterlimit="11.5" stroke-width="3.42"/>
 <path d="m255.88,119.98 14.47.553s4.258,9.068 3.457,23.318c-.806,14.254-4.441,23.781-4.441,23.781l-15.395-.5s1.832-8.492 2.112-23.646c.27-15.14-.21-23.5-.21-23.5" fill="#fff"/>
 <path d="m255.88,119.98 14.47.553s4.258,9.068 3.457,23.318c-.806,14.254-4.441,23.781-4.441,23.781l-15.395-.5s1.832-8.492 2.112-23.646c.27-15.14-.21-23.5-.21-23.5z" fill="none" stroke="#010101" stroke-linecap="round" stroke-linejoin="round" stroke-miterlimit="11.5" stroke-width="3.42"/>
 <path d="m250.25,143.27c-.232,12.738 1.656,23.117 4.22,23.168 2.569.047 4.845-10.254 5.086-22.991 .233-12.745-1.655-23.12-4.224-23.168s-4.85,10.25-5.09,22.99" fill="#fff"/>
 <path d="m250.25,143.27c-.232,12.738 1.656,23.117 4.22,23.168 2.569.047 4.845-10.254 5.086-22.991 .233-12.745-1.655-23.12-4.224-23.168s-4.85,10.25-5.09,22.99z" fill="none" stroke="#010101" stroke-linecap="round" stroke-linejoin="round" stroke-miterlimit="11.5" stroke-width="3.42"/>
 <path d="m249.55,127.34 3.866.688s1.259,7.617 1.379,15.298-.896,15.435-.896,15.435l-3.867-.69-.48-30.73" fill="#010101"/>
 <path d="m249.55,127.34 3.866.688s1.259,7.617 1.379,15.298-.896,15.435-.896,15.435l-3.867-.69-.48-30.73z" fill="none" stroke="#010101" stroke-linecap="round" stroke-linejoin="round" stroke-miterlimit="11.5" stroke-width="3.42"/>
 <path d="m35.979,119.87s.909-28.229 3.646-35.521c2.733-7.285 12.75-4.551 12.75-4.551s-7.289,11.84-9.104,30.051c-1.187,11.78.906,14.57-7.292,10.02" fill="#fff"/>
 <path d="m35.979,119.87s.909-28.229 3.646-35.521c2.733-7.285 12.75-4.551 12.75-4.551s-7.289,11.84-9.104,30.051c-1.187,11.78.906,14.57-7.292,10.02z" fill="none" stroke="#010101" stroke-linecap="round" stroke-linejoin="round" stroke-miterlimit="11.5" stroke-width="2.564"/>
 <path d="m253.63,120.78s-.914-28.232-3.646-35.517-12.746-4.555-12.746-4.555 7.281,11.836 9.104,30.055c1.19,11.79-.89,14.58 7.3,10.02" fill="#fff"/>
 <path d="m253.63,120.78s-.914-28.232-3.646-35.517-12.746-4.555-12.746-4.555 7.281,11.836 9.104,30.055c1.19,11.79-.89,14.58 7.3,10.02z" fill="none" stroke="#010101" stroke-linecap="round" stroke-linejoin="round" stroke-miterlimit="11.5" stroke-width="2.564"/>
 <path d="m35.882 208.21h7.647" fill="none" stroke="#010101" stroke-miterlimit="14.3" stroke-width="2.564"/>
 <path d="m51.807 240.06 8.918 5.74 31.858 13.38 22.937 5.1" fill="none" stroke="#010101" stroke-linecap="round" stroke-linejoin="round" stroke-miterlimit="14.3" stroke-width="2.564"/>
 <path d="m86.85 269.37 4.464-9.55" fill="none" stroke="#010101" stroke-linecap="round" stroke-linejoin="round" stroke-miterlimit="14.3" stroke-width="2.564"/>
 <path d="m55.632 255.99 5.101-9.55" fill="none" stroke="#010101" stroke-linecap="round" stroke-linejoin="round" stroke-miterlimit="14.3" stroke-width="2.564"/>
 <path d="m245.49 201.84 7.65 5.1" fill="none" stroke="#010101" stroke-miterlimit="14.3" stroke-width="2.564"/>
 <path d="m86.052 114.22c-2.909 7.926-10.366 12.479-16.642 10.172-6.271-2.309-8.992-10.604-6.078-18.53 2.914-7.918 10.367-12.478 16.643-10.168 6.273 2.308 8.995 10.608 6.077 18.528" fill="#fff"/>
 <path d="m86.052 114.22c-2.909 7.926-10.366 12.479-16.642 10.172-6.271-2.309-8.992-10.604-6.078-18.53 2.914-7.918 10.367-12.478 16.643-10.168 6.273 2.308 8.995 10.608 6.077 18.528z" fill="none" stroke="#010101" stroke-miterlimit="14.3" stroke-width="1.712"/>
 <path d="m95.912 88.164c-1.366 3.724-4.866 5.865-7.812 4.784-2.945-1.087-4.219-4.982-2.854-8.707 1.366-3.724 4.866-5.866 7.812-4.78 2.944 1.082 4.221 4.984 2.854 8.703" fill="#fff"/>
 <path d="m95.912 88.164c-1.366 3.724-4.866 5.865-7.812 4.784-2.945-1.087-4.219-4.982-2.854-8.707 1.366-3.724 4.866-5.866 7.812-4.78 2.944 1.082 4.221 4.984 2.854 8.703z" fill="none" stroke="#010101" stroke-miterlimit="14.3" stroke-width="1.712"/>
 <path d="m265.33,195.45-14.969-1.358s-2.397,3.621-2.97,9.792 .367,10.496.367,10.496l15.356,1.439s-.231-3.766.617-10.293c.85-6.52 1.59-10.08 1.59-10.08" fill="#fff"/>
 <path d="m265.33,195.45-14.969-1.358s-2.397,3.621-2.97,9.792 .367,10.496.367,10.496l15.356,1.439s-.231-3.766.617-10.293c.85-6.52 1.59-10.08 1.59-10.08z" fill="none" stroke="#010101" stroke-linecap="round" stroke-linejoin="round" stroke-miterlimit="14.3" stroke-width="3.42"/>
 <path d="m266.35,205.68c-.72,5.482-2.188,9.818-3.289,9.68s-1.406-4.711-.688-10.197c.711-5.484 2.188-9.824 3.28-9.682 1.11.14 1.41,4.71.7,10.2" fill="#fff"/>
 <path d="m266.35,205.68c-.72,5.482-2.188,9.818-3.289,9.68s-1.406-4.711-.688-10.197c.711-5.484 2.188-9.824 3.28-9.682 1.11.14 1.41,4.71.7,10.2z" fill="none" stroke="#010101" stroke-linecap="round" stroke-linejoin="round" stroke-miterlimit="14.3" stroke-width="3.42"/>
 <path d="m241.72 179.05s-18.336 12.227-38.703 17.313c-20.367 5.096-26.478 5.096-26.478 5.096s-4.073-7.134-17.312-7.134-13.238 7.134-13.238 13.238c0 6.113 7.129 7.129 15.277 7.129s15.271-4.068 15.271-4.068 15.277-1.021 27.5-4.072c12.221-3.057 35.643-12.224 35.643-12.224" fill="#010101"/>
 <path d="m273.22,57.887 7.664.016c3.656.005 6.674,3.027 6.674,6.686v37.621c0,3.664-3.018,6.672-6.674,6.664l-15.318-.027c-3.664-.004-6.682-3.022-6.682-6.688v-37.612c0-3.66 3.018-6.668 6.682-6.66l7.66.009z" fill="#fff" stroke="#010101" stroke-linecap="round" stroke-linejoin="round" stroke-miterlimit="14.3" stroke-width="3.42"/>
 <path d="m283.47 73.941c-1.039 5.082-6.173 8.332-11.457 7.25-5.289-1.072-8.741-6.077-7.702-11.163 1.039-5.082 6.172-8.332 11.461-7.25 5.29 1.074 8.74 6.077 7.7 11.163" fill="#aaabaa"/>
 <path d="m284.31 97.395c-1.035 5.086-6.173 8.336-11.457 7.259-5.289-1.082-8.738-6.082-7.703-11.163 1.039-5.087 6.173-8.337 11.461-7.26 5.29 1.085 8.75 6.085 7.7 11.168" fill="#aaabaa"/>
 <path d="m276.08 72.5c0 4.22-2.146 7.646-4.78 7.646-2.642 0-4.78-3.43-4.78-7.646s2.142-7.647 4.78-7.647 4.78 3.429 4.78 7.647" fill="#010101"/>
 <path d="m276.08 72.5c0 4.22-2.146 7.646-4.78 7.646-2.642 0-4.78-3.43-4.78-7.646s2.142-7.647 4.78-7.647 4.78 3.429 4.78 7.647z" fill="none" stroke="#010101" stroke-linecap="round" stroke-linejoin="round" stroke-miterlimit="14.3" stroke-width="3.42"/>
 <path d="m276.72 94.801c0 4.219-2.141 7.647-4.775 7.647-2.643 0-4.781-3.432-4.781-7.647 0-4.224 2.143-7.647 4.781-7.647s4.78 3.422 4.78 7.645" fill="#010101"/>
 <path d="m276.72 94.801c0 4.219-2.141 7.647-4.775 7.647-2.643 0-4.781-3.432-4.781-7.647 0-4.224 2.143-7.647 4.781-7.647s4.78 3.422 4.78 7.645z" fill="none" stroke="#010101" stroke-linecap="round" stroke-linejoin="round" stroke-miterlimit="14.3" stroke-width="3.42"/>
 <path d="m283.47 73.941c-1.039 5.082-6.173 8.332-11.457 7.25-5.289-1.072-8.741-6.077-7.702-11.163 1.039-5.082 6.172-8.332 11.461-7.25 5.29 1.074 8.74 6.077 7.7 11.163z" fill="none" stroke="#010101" stroke-linecap="round" stroke-linejoin="round" stroke-miterlimit="14.3" stroke-width="3.42"/>
 <path d="m284.31 97.395c-1.035 5.086-6.173 8.336-11.457 7.259-5.289-1.082-8.738-6.082-7.703-11.163 1.039-5.087 6.173-8.337 11.461-7.26 5.29 1.085 8.75 6.085 7.7 11.168z" fill="none" stroke="#010101" stroke-linecap="round" stroke-linejoin="round" stroke-miterlimit="14.3" stroke-width="3.42"/>
</svg>
