<?xml version="1.0" encoding="UTF-8" standalone="no"?>
<!-- Created with Inkscape (http://www.inkscape.org/) -->

<svg
   xmlns:dc="http://purl.org/dc/elements/1.1/"
   xmlns:cc="http://creativecommons.org/ns#"
   xmlns:rdf="http://www.w3.org/1999/02/22-rdf-syntax-ns#"
   xmlns:svg="http://www.w3.org/2000/svg"
   xmlns="http://www.w3.org/2000/svg"
   xmlns:sodipodi="http://sodipodi.sourceforge.net/DTD/sodipodi-0.dtd"
   xmlns:inkscape="http://www.inkscape.org/namespaces/inkscape"
   width="440"
   height="280"
   viewBox="0 0 116.41666 74.083335"
   version="1.1"
   id="svg8"
   inkscape:version="0.92.2 (5c3e80d, 2017-08-06)"
   sodipodi:docname="tile.svg"
   inkscape:export-filename="/home/james/Garage/SpaceSuit/screenshots/tile.svg.png"
   inkscape:export-xdpi="96"
   inkscape:export-ydpi="96">
  <defs
     id="defs2" />
  <sodipodi:namedview
     id="base"
     pagecolor="#ffffff"
     bordercolor="#666666"
     borderopacity="1.0"
     inkscape:pageopacity="0.0"
     inkscape:pageshadow="2"
     inkscape:zoom="3.959798"
     inkscape:cx="166.99852"
     inkscape:cy="155.01787"
     inkscape:document-units="mm"
     inkscape:current-layer="layer1"
     showgrid="false"
     units="px"
     inkscape:snap-page="true"
     inkscape:snap-global="true"
     inkscape:window-width="3200"
     inkscape:window-height="1689"
     inkscape:window-x="0"
     inkscape:window-y="55"
     inkscape:window-maximized="1" />
  <metadata
     id="metadata5">
    <rdf:RDF>
      <cc:Work
         rdf:about="">
        <dc:format>image/svg+xml</dc:format>
        <dc:type
           rdf:resource="http://purl.org/dc/dcmitype/StillImage" />
        <dc:title></dc:title>
      </cc:Work>
    </rdf:RDF>
  </metadata>
  <g
     inkscape:label="Layer 1"
     inkscape:groupmode="layer"
     id="layer1"
     transform="translate(0,-222.91665)">
    <rect
       id="rect3699"
       width="116.41666"
       height="74.083336"
       x="0"
       y="222.91666"
       style="stroke-width:0.26458332;fill:#00adca;fill-opacity:1" />
    <g
       id="g5204"
       transform="matrix(0.4770509,0,0,0.4770509,-5.181804,138.26678)">
      <path
         id="path4710"
         d="m 36.43007,233.19608 c 0,0 -2.624101,-0.36697 -5.17756,0.0582 -1.011752,0.1688 -4.383027,1.18055 -4.95981,2.01186 -0.269343,6.65339 0.576783,12.82286 0.576783,12.82286 l 5.837157,0.69135"
         style="fill:#ffffff;stroke-width:0.26457968"
         inkscape:connector-curvature="0" />
      <path
         id="path4712"
         stroke-miterlimit="14.3"
         d="m 36.43007,233.19608 c 0,0 -2.624101,-0.36697 -5.17756,0.0582 -1.011752,0.1688 -4.383027,1.18055 -4.95981,2.01186 -0.269343,6.65339 0.576783,12.82286 0.576783,12.82286 l 5.837157,0.69135"
         style="fill:none;stroke:#010101;stroke-width:0.90486252;stroke-linecap:round;stroke-linejoin:round;stroke-miterlimit:14.30000019"
         inkscape:connector-curvature="0" />
      <path
         id="path4714"
         d="m 29.473477,235.2725 -2.025358,0.003 c -0.96942,0.002 -1.767657,0.80062 -1.767657,1.76951 v 9.95375 c 0,0.96942 0.798237,1.76528 1.767657,1.76316 l 4.053096,-0.007 c 0.96942,-0.002 1.765541,-0.7993 1.765541,-1.76951 v -9.95137 c 0,-0.96836 -0.796121,-1.76422 -1.765541,-1.76316 l -2.027738,0.004"
         style="fill:#ffffff;stroke-width:0.26457968"
         inkscape:connector-curvature="0" />
      <path
         id="path4716"
         stroke-miterlimit="14.3"
         d="m 29.473477,235.2725 -2.025358,0.003 c -0.96942,0.002 -1.767657,0.80062 -1.767657,1.76951 v 9.95375 c 0,0.96942 0.798237,1.76528 1.767657,1.76316 l 4.053096,-0.007 c 0.96942,-0.002 1.765541,-0.7993 1.765541,-1.76951 v -9.95137 c 0,-0.96836 -0.796121,-1.76422 -1.765541,-1.76316 l -2.027738,0.004 z"
         style="fill:none;stroke:#010101;stroke-width:0.90486252;stroke-linecap:round;stroke-linejoin:round;stroke-miterlimit:14.30000019"
         inkscape:connector-curvature="0" />
      <path
         id="path4718"
         d="m 26.752804,239.47694 c 0.273575,1.34565 1.63325,2.20554 3.032348,1.92032 1.399097,-0.28522 2.310574,-1.61023 2.036734,-2.95483 -0.275957,-1.34565 -1.634044,-2.20447 -3.032348,-1.91926 -1.398039,0.28628 -2.311368,1.60918 -2.036734,2.95377"
         style="fill:#aaabaa;stroke-width:0.26457968"
         inkscape:connector-curvature="0" />
      <path
         id="path4720"
         stroke-miterlimit="14.3"
         d="m 26.752804,239.47694 c 0.273575,1.34565 1.63325,2.20554 3.032348,1.92032 1.399097,-0.28522 2.310574,-1.61023 2.036734,-2.95483 -0.275957,-1.34565 -1.634044,-2.20447 -3.032348,-1.91926 -1.398039,0.28628 -2.311368,1.60918 -2.036734,2.95377 z"
         style="fill:none;stroke:#010101;stroke-width:0.90486252;stroke-linecap:round;stroke-linejoin:round;stroke-miterlimit:14.30000019"
         inkscape:connector-curvature="0" />
      <path
         id="path4722"
         d="m 26.527646,245.68424 c 0.275957,1.34566 1.633251,2.20448 3.032348,1.91926 1.399097,-0.28521 2.312691,-1.60917 2.037793,-2.95376 -0.274899,-1.34566 -1.632986,-2.20448 -3.032348,-1.92032 -1.399097,0.28733 -2.31031,1.61129 -2.037793,2.95588"
         style="fill:#aaabaa;stroke-width:0.26457968"
         inkscape:connector-curvature="0" />
      <path
         id="path4724"
         stroke-miterlimit="14.3"
         d="m 26.527646,245.68424 c 0.275957,1.34566 1.633251,2.20448 3.032348,1.91926 1.399097,-0.28521 2.312691,-1.60917 2.037793,-2.95376 -0.274899,-1.34566 -1.632986,-2.20448 -3.032348,-1.92032 -1.399097,0.28733 -2.31031,1.61129 -2.037793,2.95588 z"
         style="fill:none;stroke:#010101;stroke-width:0.90486252;stroke-linecap:round;stroke-linejoin:round;stroke-miterlimit:14.30000019"
         inkscape:connector-curvature="0" />
      <path
         id="path4726"
         d="m 28.714397,239.15548 c 0,1.11652 0.56673,2.02297 1.264691,2.02297 0.697962,0 1.264956,-0.90751 1.264956,-2.02297 0,-1.11547 -0.567788,-2.02325 -1.264956,-2.02325 -0.698225,-5.2e-4 -1.264691,0.90672 -1.264691,2.02325"
         style="fill:#010101;stroke-width:0.26457968"
         inkscape:connector-curvature="0" />
      <path
         id="path4728"
         stroke-miterlimit="14.3"
         d="m 28.714397,239.15548 c 0,1.11652 0.56673,2.02297 1.264691,2.02297 0.697962,0 1.264956,-0.90751 1.264956,-2.02297 0,-1.11547 -0.567788,-2.02325 -1.264956,-2.02325 -0.698225,-5.2e-4 -1.264691,0.90672 -1.264691,2.02325 z"
         style="fill:none;stroke:#010101;stroke-width:0.90486252;stroke-linecap:round;stroke-linejoin:round;stroke-miterlimit:14.30000019"
         inkscape:connector-curvature="0" />
      <path
         id="path4730"
         d="m 28.547448,245.05587 c 0,1.11626 0.566729,2.02324 1.263632,2.02324 0.696903,0 1.264691,-0.90804 1.264691,-2.02324 0,-1.11759 -0.567788,-2.02324 -1.264691,-2.02324 -0.697432,2.6e-4 -1.263632,0.90645 -1.263632,2.02377"
         style="fill:#010101;stroke-width:0.26457968"
         inkscape:connector-curvature="0" />
      <path
         id="path4732"
         stroke-miterlimit="14.3"
         d="m 28.547448,245.05587 c 0,1.11626 0.566729,2.02324 1.263632,2.02324 0.696903,0 1.264691,-0.90804 1.264691,-2.02324 0,-1.11759 -0.567788,-2.02324 -1.264691,-2.02324 -0.697432,2.6e-4 -1.263632,0.90645 -1.263632,2.02377 z"
         style="fill:none;stroke:#010101;stroke-width:0.90486252;stroke-linecap:round;stroke-linejoin:round;stroke-miterlimit:14.30000019"
         inkscape:connector-curvature="0" />
      <path
         id="path4734"
         d="m 88.235038,245.60884 c 0,0 -4.95505,-9.35713 -22.375241,-8.89649 -17.42363,0.45878 -25.895736,7.12724 -25.895736,7.12724 -0.370941,-0.10503 -3.194535,7.73684 -2.965144,15.13476 0.108213,3.45752 0.942961,12.49451 0.942961,12.49451 0,0 0.936348,14.42171 25.49781,14.82651 17.188683,0.2831 23.738088,-12.49001 23.738088,-12.49001 l 2.611668,-9.93814 c 0,0 0.625994,-6.33854 0.641075,-8.51867 0.05027,-7.70721 -2.616692,-10.00879 -2.193364,-9.73786"
         style="fill:#ffffff;stroke-width:0.26457968"
         inkscape:connector-curvature="0" />
      <path
         id="path4736"
         d="m 89.32246,246.4211 -1.05832,-5.65777 c 0,0 -4.567174,-7.03068 -22.030756,-7.70245 -17.463582,-0.67177 -25.027121,7.15715 -25.027121,7.15715 l -0.767811,3.62156"
         style="fill:#ffffff;stroke-width:0.26457968"
         inkscape:connector-curvature="0" />
      <path
         id="path4738"
         d="m 90.568629,233.20349 c 0,0 2.624103,-0.36829 5.178882,0.0569 1.010431,0.16959 4.382769,1.18029 4.959809,2.01186 0.26776,6.65418 -0.5781,12.82285 -0.5781,12.82285 l -5.835837,0.69082"
         style="fill:#ffffff;stroke-width:0.26457968"
         inkscape:connector-curvature="0" />
      <path
         id="path4740"
         stroke-miterlimit="14.3"
         d="m 90.568629,233.20349 c 0,0 2.624103,-0.36829 5.178882,0.0569 1.010431,0.16959 4.382769,1.18029 4.959809,2.01186 0.26776,6.65418 -0.5781,12.82285 -0.5781,12.82285 l -5.835837,0.69082"
         style="fill:none;stroke:#010101;stroke-width:0.90486252;stroke-linecap:round;stroke-linejoin:round;stroke-miterlimit:14.30000019"
         inkscape:connector-curvature="0" />
      <path
         id="path4742"
         d="m 97.516492,235.28811 2.02774,0.004 c 0.967298,0.001 1.765798,0.80088 1.765798,1.76898 v 9.95375 c 0,0.96942 -0.7985,1.76528 -1.765798,1.76316 L 95.4914,248.771 c -0.96942,-10e-4 -1.767922,-0.79957 -1.767922,-1.76951 v -9.95138 c 0,-0.96836 0.798502,-1.76421 1.767922,-1.7621 l 2.026679,0.002"
         style="fill:#ffffff;stroke-width:0.26457968"
         inkscape:connector-curvature="0" />
      <path
         id="path4744"
         d="m 34.89736,275.02613 -0.963864,-2.43043 c 0,0 -2.849523,-6.01469 -0.950899,-27.51893 1.603882,-18.1589 18.132175,-24.88451 32.829046,-23.74576 21.606637,1.67399 29.540324,12.331 28.907978,33.8609 -0.325168,10.99752 -1.742522,17.7279 -1.742522,17.7279 l -0.949841,2.53203 2.235962,0.91571"
         style="fill:#ffffff;stroke-width:0.26457968"
         inkscape:connector-curvature="0" />
      <path
         id="path4746"
         d="m 93.812378,276.36755 0.0026,-0.16139 0.01323,-0.15875 0.01852,-0.15346 0.02381,-0.14552 0.0344,-0.13493 0.03969,-0.12171 0.04233,-0.10583 0.05027,-0.09 0.05292,-0.0741 0.05556,-0.0503 0.05821,-0.0317 0.05821,-0.0106 0.06086,0.0106 0.05821,0.0317 0.05556,0.0503 0.05292,0.0741 0.05027,0.09 0.04498,0.10583 0.03704,0.12171 0.03175,0.13493 0.02646,0.14552 0.02117,0.15346 0.01058,0.15875 0.0053,0.16139 -0.0053,0.16139 -0.01058,0.15875 -0.02117,0.15346 -0.02646,0.14552 -0.03175,0.13493 -0.03704,0.12171 -0.04498,0.10583 -0.05027,0.09 -0.05292,0.0741 -0.05556,0.0503 -0.05821,0.0318 -0.06086,0.0106 -0.05821,-0.0106 -0.05821,-0.0318 -0.05556,-0.0503 -0.05292,-0.0741 -0.05027,-0.09 -0.04233,-0.10583 -0.03969,-0.12171 -0.0344,-0.13493 -0.02381,-0.14552 -0.01852,-0.15346 -0.01323,-0.15875 -0.0026,-0.16139"
         style="fill:#010101;stroke-width:0.26457968"
         inkscape:connector-curvature="0" />
      <path
         id="path4748"
         d="m 34.443341,275.02613 0.0056,-0.16139 0.01032,-0.15875 0.01958,-0.15346 0.02593,-0.14552 0.03307,-0.13493 0.03889,-0.11906 0.04445,-0.10848 0.04895,-0.09 0.05371,-0.0714 0.05583,-0.0529 0.05768,-0.0317 0.06059,-0.0106 0.059,0.0106 0.05768,0.0317 0.05715,0.0529 0.05133,0.0714 0.04974,0.09 0.04339,0.10848 0.03889,0.11906 0.03307,0.13493 0.02725,0.14552 0.01852,0.15346 0.01243,0.15875 0.0021,0.16139 -0.0021,0.16139 -0.01243,0.1614 -0.01852,0.15346 -0.02725,0.14287 -0.03307,0.13493 -0.03889,0.12435 -0.04339,0.10584 -0.04974,0.0899 -0.05133,0.0714 -0.05715,0.0529 -0.05768,0.0291 -0.059,0.0132 -0.06059,-0.0132 -0.05768,-0.0291 -0.05583,-0.0529 -0.05371,-0.0714 -0.04895,-0.0899 -0.04445,-0.10584 -0.03889,-0.12435 -0.03307,-0.13493 -0.02593,-0.14287 -0.01958,-0.15346 -0.01032,-0.1614 z"
         style="fill:#010101;stroke-width:0.26457968"
         inkscape:connector-curvature="0" />
      <path
         id="path4750"
         d="m 34.589389,275.93893 -0.955132,-2.41297 -0.02249,-0.0556 -0.02196,-0.0503 -0.08678,-0.22489 -0.0217,-0.0635 -0.13229,-0.39687 -0.02275,-0.0714 -0.165362,-0.57943 -0.02011,-0.0794 -0.186,-0.77522 -0.01958,-0.0847 -0.199493,-0.98689 -0.01561,-0.0899 -0.199493,-1.20913 -0.0127,-0.0953 -0.188116,-1.44725 0.06191,0.32014 -0.07223,-0.41539 -0.165363,-1.6986 0.03916,0.26458 -0.04657,-0.35983 -0.132289,-1.96847 0.0172,0.17726 -0.0217,-0.26987 -0.08784,-2.24628 0.0021,0.0503 -0.0042,-0.13758 -0.03201,-2.53996 v -0.0979 0.0159 l 0.03625,-2.84953 0.01032,-0.23812 -0.0093,0.1614 0.112975,-3.16967 0.03413,-0.35983 -0.0299,0.28839 0.201346,-3.50568 0.0058,-0.0661 0.301885,-3.85255 0.08678,-0.50614 0.04233,-0.12647 -0.108478,0.43815 0.472275,-3.271 0.1606,-0.56117 0.05292,-0.0868 -0.159542,0.37518 0.796121,-3.0096 0.221188,-0.44449 -0.159806,0.25849 1.097741,-2.75083 0.05477,-0.1188 1.372904,-2.50001 0.04551,-0.072 1.626106,-2.2521 0.03757,-0.0468 1.853116,-2.01133 0.03069,-0.0299 2.054197,-1.77348 0.02593,-0.0196 2.232259,-1.5417 0.0217,-0.0148 2.387037,-1.3147 0.01799,-0.0103 2.516153,-1.09456 0.01534,-0.007 2.620929,-0.87946 0.01323,-0.004 2.698713,-0.66886 0.01323,-0.003 2.754275,-0.46301 0.01323,-0.002 2.786026,-0.26326 0.0079,-0.001 2.793958,-0.0693 h 0.01058 l 2.772794,0.12091 h 0.01058 l 3.891968,0.41963 0.01323,0.002 3.577117,0.63393 0.01588,0.002 3.272851,0.84957 0.01587,0.005 2.976523,1.06757 0.01852,0.008 2.685484,1.29115 0.02381,0.0124 2.402385,1.51339 0.02646,0.0217 2.129867,1.74014 0.03175,0.032 1.857348,1.97059 0.03969,0.049 1.598059,2.20342 0.04762,0.073 1.344065,2.44049 0.05027,0.10609 1.098005,2.67755 0.05292,0.14737 0.859883,2.91752 -0.111122,-0.27014 0.156101,0.45588 0.629701,3.16146 -0.09525,-0.33284 0.127,0.54159 0.40745,3.40752 -0.05291,-0.30691 0.0291,0.14817 0.04233,0.36776 0.190497,3.65914 -0.0079,-0.11642 0.01058,0.16669 0.0026,0.13758 -0.01587,3.91049 -0.0079,0.19314 -0.01323,0.16404 0.01852,-0.22754 -0.169331,3.91843 -0.04233,0.39157 0.03704,-0.30691 -0.240766,3.49245 -0.0053,0.0767 -0.285748,3.03208 -0.0079,0.0714 -0.298974,2.5479 -0.0079,0.0635 -0.283101,2.02933 -0.0079,0.0582 -0.240765,1.48429 -0.0079,0.0503 -0.164041,0.9128 -0.0079,0.0423 -0.0635,0.30956 -0.198435,0.52122 0.11906,-0.22489 -0.296328,0.79109 1.333481,0.54503 -0.132289,2.45001 -2.238346,-0.91544 0.03704,0.0106 -0.06085,-0.0238 -0.06085,-0.045 -0.05556,-0.0688 -0.05292,-0.0873 -0.04762,-0.10584 -0.04233,-0.12435 -0.03704,-0.13758 -0.02646,-0.15081 -0.02117,-0.15875 -0.01323,-0.16668 -0.0053,-0.16669 0.0053,-0.16933 0.01323,-0.16404 0.02117,-0.16139 0.02646,-0.14817 0.03704,-0.13758 0.04233,-0.12435 0.04762,-0.10848 0.05292,-0.0873 -0.108479,0.21431 0.899572,-2.40238 0.02646,-0.12436 0.156101,-0.86782 0.232831,-1.43137 0.272515,-1.97112 0.293685,-2.47911 0.277807,-2.95801 0.235477,-3.40778 0.164039,-3.81259 0.01587,-3.7491 -0.18256,-3.45541 -0.378349,-3.19771 -0.592658,-2.96409 -0.812261,-2.75189 -1.045088,-2.55108 -1.29644,-2.34999 -1.553083,-2.14283 -1.822955,-1.9317 -2.095471,-1.7158 -2.375927,-1.49752 -2.664319,-1.27951 -2.958,-1.06122 -3.259621,-0.8456 -3.566536,-0.63129 -3.878736,-0.41777 -2.764859,-0.12091 -2.778088,0.0706 -2.77544,0.2622 -2.741046,0.4609 -2.685484,0.66594 -2.602934,0.87576 -2.498691,1.08795 -2.3664,1.30465 -2.210299,1.52662 -2.026416,1.75046 -1.816869,1.97191 -1.583244,2.19416 -1.32184,2.40635 -1.037682,2.60241 -0.736854,2.7802 -0.435763,3.03023 -0.292361,3.72 -0.197376,3.43424 -0.110594,3.09294 -0.03519,2.76485 0.03096,2.45266 0.08334,2.15632 0.126469,1.87323 0.156102,1.60335 0.173564,1.35465 0.183883,1.11652 0.179914,0.89957 0.169596,0.6932 0.142608,0.50271 0.109536,0.33072 0.06614,0.16933 0.02064,0.0503 0.01455,0.037 0.963599,2.42884 z"
         style="fill:#010101;stroke-width:0.26457968"
         inkscape:connector-curvature="0" />
      <path
         id="path4752"
         d="m 88.526075,245.55486 c 0,0 -4.955048,-9.35818 -22.376297,-8.8986 -17.422044,0.4601 -25.894415,7.1291 -25.894415,7.1291 -0.370411,-0.1061 -3.194006,7.73419 -2.965144,15.13369 0.107419,3.45858 0.943226,12.49319 0.943226,12.49319 0,0 0.935289,14.42303 25.497808,14.82757 17.187363,0.28416 23.738092,-12.49001 23.738092,-12.49001 l 2.610342,-9.93814 c 0,0 0.627319,-6.3396 0.641077,-8.5192 0.04762,-7.70721 -2.61934,-10.00694 -2.196012,-9.73627"
         style="fill:#ffffff;stroke-width:0.26457968"
         inkscape:connector-curvature="0" />
      <path
         id="path4754"
         d="m 88.235038,245.60884 c 0,0 -4.95505,-9.35713 -22.375241,-8.89649 -17.42363,0.45878 -25.895736,7.12724 -25.895736,7.12724 -0.370941,-0.10503 -3.194535,7.73684 -2.965144,15.13476 0.108213,3.45752 0.942961,12.49451 0.942961,12.49451 0,0 0.936348,14.42171 25.49781,14.82651 17.188683,0.2831 23.738088,-12.49001 23.738088,-12.49001 l 2.611668,-9.93814 c 0,0 0.625994,-6.33854 0.641075,-8.51867 0.05027,-7.70721 -2.616692,-10.00879 -2.193364,-9.73786"
         style="fill:#ffffff;stroke-width:0.26457968"
         inkscape:connector-curvature="0" />
      <path
         id="path4756"
         d="m 89.32246,246.4211 -1.05832,-5.65777 c 0,0 -4.567174,-7.03068 -22.030756,-7.70245 -17.463582,-0.67177 -25.027121,7.15715 -25.027121,7.15715 l -0.767811,3.62156"
         style="fill:#ffffff;stroke-width:0.26457968"
         inkscape:connector-curvature="0" />
      <path
         id="path4758"
         d="m 90.568629,233.20349 c 0,0 2.624103,-0.36829 5.178882,0.0569 1.010431,0.16959 4.382769,1.18029 4.959809,2.01186 0.26776,6.65418 -0.5781,12.82285 -0.5781,12.82285 l -5.835837,0.69082"
         style="fill:#ffffff;stroke-width:0.26457968"
         inkscape:connector-curvature="0" />
      <g
         id="g4764"
         style="fill:none"
         transform="matrix(0.26457968,0,0,0.26457968,25.228031,219.97239)">
        <path
           id="path4760"
           stroke-miterlimit="11.5"
           d="m 246.96,50.008 c 0,0 9.918,-1.392 19.574,0.215 3.819,0.641 16.565,4.461 18.746,7.604 1.012,25.15 -2.185,48.465 -2.185,48.465 l -22.057,2.611"
           inkscape:connector-curvature="0"
           style="stroke:#010101;stroke-width:3.42000008;stroke-linecap:round;stroke-linejoin:round;stroke-miterlimit:11.5" />
        <path
           id="path4762"
           d="m 239.24,96.691 c 0,0 -18.728,-35.37 -84.573,-33.633 -65.848,1.739 -97.87,26.945 -97.87,26.945 -1.4,-0.401 -12.072,29.232 -11.207,57.199 0.406,13.072 3.565,47.219 3.565,47.219 0,0 3.535,54.513 96.371,56.042 64.961,1.074 89.72,-47.207 89.72,-47.207 l 9.866,-37.562 c 0,0 2.371,-23.961 2.423,-32.199 0.18,-29.13 -9.9,-37.822 -8.3,-36.799"
           inkscape:connector-curvature="0" />
      </g>
      <path
         id="path4766"
         d="m 34.89736,275.02613 -0.963864,-2.43043 c 0,0 -2.849523,-6.01469 -0.950899,-27.51893 1.603882,-18.1589 18.132175,-24.88451 32.829046,-23.74576 21.606637,1.67399 29.540324,12.331 28.907978,33.8609 -0.325168,10.99752 -1.742522,17.7279 -1.742522,17.7279 l -0.949841,2.53203 2.235962,0.91571"
         style="fill:#ffffff;stroke-width:0.26457968"
         inkscape:connector-curvature="0" />
      <path
         id="path4768"
         d="m 93.812378,276.36755 0.0026,-0.16139 0.01323,-0.15875 0.01852,-0.15346 0.02381,-0.14552 0.0344,-0.13493 0.03969,-0.12171 0.04233,-0.10583 0.05027,-0.09 0.05292,-0.0741 0.05556,-0.0503 0.05821,-0.0317 0.05821,-0.0106 0.06086,0.0106 0.05821,0.0317 0.05556,0.0503 0.05292,0.0741 0.05027,0.09 0.04498,0.10583 0.03704,0.12171 0.03175,0.13493 0.02646,0.14552 0.02117,0.15346 0.01058,0.15875 0.0053,0.16139 -0.0053,0.16139 -0.01058,0.15875 -0.02117,0.15346 -0.02646,0.14552 -0.03175,0.13493 -0.03704,0.12171 -0.04498,0.10583 -0.05027,0.09 -0.05292,0.0741 -0.05556,0.0503 -0.05821,0.0318 -0.06086,0.0106 -0.05821,-0.0106 -0.05821,-0.0318 -0.05556,-0.0503 -0.05292,-0.0741 -0.05027,-0.09 -0.04233,-0.10583 -0.03969,-0.12171 -0.0344,-0.13493 -0.02381,-0.14552 -0.01852,-0.15346 -0.01323,-0.15875 -0.0026,-0.16139"
         style="fill:#231f20;stroke-width:0.26457968"
         inkscape:connector-curvature="0" />
      <path
         id="path4770"
         d="m 34.443341,275.02613 0.0056,-0.16139 0.01032,-0.15875 0.01958,-0.15346 0.02593,-0.14552 0.03307,-0.13493 0.03889,-0.11906 0.04445,-0.10848 0.04895,-0.09 0.05371,-0.0714 0.05583,-0.0529 0.05768,-0.0317 0.06059,-0.0106 0.059,0.0106 0.05768,0.0317 0.05715,0.0529 0.05133,0.0714 0.04974,0.09 0.04339,0.10848 0.03889,0.11906 0.03307,0.13493 0.02725,0.14552 0.01852,0.15346 0.01243,0.15875 0.0021,0.16139 -0.0021,0.16139 -0.01243,0.1614 -0.01852,0.15346 -0.02725,0.14287 -0.03307,0.13493 -0.03889,0.12435 -0.04339,0.10584 -0.04974,0.0899 -0.05133,0.0714 -0.05715,0.0529 -0.05768,0.0291 -0.059,0.0132 -0.06059,-0.0132 -0.05768,-0.0291 -0.05583,-0.0529 -0.05371,-0.0714 -0.04895,-0.0899 -0.04445,-0.10584 -0.03889,-0.12435 -0.03307,-0.13493 -0.02593,-0.14287 -0.01958,-0.15346 -0.01032,-0.1614 z"
         style="fill:#231f20;stroke-width:0.26457968"
         inkscape:connector-curvature="0" />
      <path
         id="path4772"
         d="m 34.589389,275.93893 -0.955132,-2.41297 -0.02249,-0.0556 -0.02196,-0.0503 -0.08678,-0.22489 -0.0217,-0.0635 -0.13229,-0.39687 -0.02275,-0.0714 -0.165362,-0.57943 -0.02011,-0.0794 -0.186,-0.77522 -0.01958,-0.0847 -0.199493,-0.98689 -0.01561,-0.0899 -0.199493,-1.20913 -0.0127,-0.0953 -0.188116,-1.44725 0.06191,0.32014 -0.07223,-0.41539 -0.165363,-1.6986 0.03916,0.26458 -0.04657,-0.35983 -0.132289,-1.96847 0.0172,0.17726 -0.0217,-0.26987 -0.08784,-2.24628 0.0021,0.0503 -0.0042,-0.13758 -0.03201,-2.53996 v -0.0979 0.0159 l 0.03625,-2.84953 0.01032,-0.23812 -0.0093,0.1614 0.112975,-3.16967 0.03413,-0.35983 -0.0299,0.28839 0.201346,-3.50568 0.0058,-0.0661 0.301885,-3.85255 0.08678,-0.50614 0.04233,-0.12647 -0.108478,0.43815 0.472275,-3.271 0.1606,-0.56117 0.05292,-0.0868 -0.159542,0.37518 0.796121,-3.0096 0.221188,-0.44449 -0.159806,0.25849 1.097741,-2.75083 0.05477,-0.1188 1.372904,-2.50001 0.04551,-0.072 1.626106,-2.2521 0.03757,-0.0468 1.853116,-2.01133 0.03069,-0.0299 2.054197,-1.77348 0.02593,-0.0196 2.232259,-1.5417 0.0217,-0.0148 2.387037,-1.3147 0.01799,-0.0103 2.516153,-1.09456 0.01534,-0.007 2.620929,-0.87946 0.01323,-0.004 2.698713,-0.66886 0.01323,-0.003 2.754275,-0.46301 0.01323,-0.002 2.786026,-0.26326 0.0079,-0.001 2.793958,-0.0693 h 0.01058 l 2.772794,0.12091 h 0.01058 l 3.891968,0.41963 0.01323,0.002 3.577117,0.63393 0.01588,0.002 3.272851,0.84957 0.01587,0.005 2.976523,1.06757 0.01852,0.008 2.685484,1.29115 0.02381,0.0124 2.402385,1.51339 0.02646,0.0217 2.129867,1.74014 0.03175,0.032 1.857348,1.97059 0.03969,0.049 1.598059,2.20342 0.04762,0.073 1.344065,2.44049 0.05027,0.10609 1.098005,2.67755 0.05292,0.14737 0.859883,2.91752 -0.111122,-0.27014 0.156101,0.45588 0.629701,3.16146 -0.09525,-0.33284 0.127,0.54159 0.40745,3.40752 -0.05291,-0.30691 0.0291,0.14817 0.04233,0.36776 0.190497,3.65914 -0.0079,-0.11642 0.01058,0.16669 0.0026,0.13758 -0.01587,3.91049 -0.0079,0.19314 -0.01323,0.16404 0.01852,-0.22754 -0.169331,3.91843 -0.04233,0.39157 0.03704,-0.30691 -0.240766,3.49245 -0.0053,0.0767 -0.285748,3.03208 -0.0079,0.0714 -0.298974,2.5479 -0.0079,0.0635 -0.283101,2.02933 -0.0079,0.0582 -0.240765,1.48429 -0.0079,0.0503 -0.164041,0.9128 -0.0079,0.0423 -0.0635,0.30956 -0.198435,0.52122 0.11906,-0.22489 -0.296328,0.79109 1.333481,0.54503 -0.132289,2.45001 -2.238346,-0.91544 0.03704,0.0106 -0.06085,-0.0238 -0.06085,-0.045 -0.05556,-0.0688 -0.05292,-0.0873 -0.04762,-0.10584 -0.04233,-0.12435 -0.03704,-0.13758 -0.02646,-0.15081 -0.02117,-0.15875 -0.01323,-0.16668 -0.0053,-0.16669 0.0053,-0.16933 0.01323,-0.16404 0.02117,-0.16139 0.02646,-0.14817 0.03704,-0.13758 0.04233,-0.12435 0.04762,-0.10848 0.05292,-0.0873 -0.108479,0.21431 0.899572,-2.40238 0.02646,-0.12436 0.156101,-0.86782 0.232831,-1.43137 0.272515,-1.97112 0.293685,-2.47911 0.277807,-2.95801 0.235477,-3.40778 0.164039,-3.81259 0.01587,-3.7491 -0.18256,-3.45541 -0.378349,-3.19771 -0.592658,-2.96409 -0.812261,-2.75189 -1.045088,-2.55108 -1.29644,-2.34999 -1.553083,-2.14283 -1.822955,-1.9317 -2.095471,-1.7158 -2.375927,-1.49752 -2.664319,-1.27951 -2.958,-1.06122 -3.259621,-0.8456 -3.566536,-0.63129 -3.878736,-0.41777 -2.764859,-0.12091 -2.778088,0.0706 -2.77544,0.2622 -2.741046,0.4609 -2.685484,0.66594 -2.602934,0.87576 -2.498691,1.08795 -2.3664,1.30465 -2.210299,1.52662 -2.026416,1.75046 -1.816869,1.97191 -1.583244,2.19416 -1.32184,2.40635 -1.037682,2.60241 -0.736854,2.7802 -0.435763,3.03023 -0.292361,3.72 -0.197376,3.43424 -0.110594,3.09294 -0.03519,2.76485 0.03096,2.45266 0.08334,2.15632 0.126469,1.87323 0.156102,1.60335 0.173564,1.35465 0.183883,1.11652 0.179914,0.89957 0.169596,0.6932 0.142608,0.50271 0.109536,0.33072 0.06614,0.16933 0.02064,0.0503 0.01455,0.037 0.963599,2.42884 z"
         style="fill:#231f20;stroke-width:0.26457968"
         inkscape:connector-curvature="0" />
      <path
         id="path4774"
         stroke-miterlimit="11.5"
         d="m 90.150595,273.40161 c 0,0 1.611553,-4.2719 2.210033,-14.24206 0.540536,-8.992 -3.609396,-16.33515 -3.609396,-16.33515 0,0 -6.355733,-8.59778 -25.66661,-8.59778 -19.310349,0 -25.149887,8.59884 -25.149887,8.59884 0,0 -2.742633,7.22779 -3.19136,14.55744 -0.447934,7.32965 1.394864,14.75746 1.394864,14.75746"
         style="fill:none;stroke:#010101;stroke-width:0.67838228;stroke-linecap:round;stroke-linejoin:round;stroke-miterlimit:11.5"
         inkscape:connector-curvature="0" />
      <path
         id="path4776"
         d="m 34.658445,275.26425 c 0,0 0.230449,1.64939 1.241937,3.50357 1.618169,2.96832 3.203531,5.05744 3.203531,5.05744 l 0.485768,4.15734 8.703613,3.56151 c 0,0 4.503675,-1.48165 6.825626,-1.48165 2.320894,0 8.259914,0.71833 13.482188,-0.0455 5.220687,-0.76331 12.024617,-3.86471 15.344563,-5.68634 5.22545,-2.86435 8.15408,-8.30331 8.15408,-8.30331"
         style="fill:#ffffff;stroke-width:0.26457968"
         inkscape:connector-curvature="0" />
      <path
         id="path4778"
         stroke-miterlimit="11.5"
         d="m 34.658445,275.26425 c 0,0 0.230449,1.64939 1.241937,3.50357 1.618169,2.96832 3.203531,5.05744 3.203531,5.05744 l 0.485768,4.15734 8.703613,3.56151 c 0,0 4.503675,-1.48165 6.825626,-1.48165 2.320894,0 8.259914,0.71833 13.482188,-0.0455 5.220687,-0.76331 12.024617,-3.86471 15.344563,-5.68634 5.22545,-2.86435 8.15408,-8.30331 8.15408,-8.30331"
         style="fill:none;stroke:#010101;stroke-width:0.90486252;stroke-linecap:round;stroke-linejoin:round;stroke-miterlimit:11.5"
         inkscape:connector-curvature="0" />
      <path
         id="path4780"
         d="m 90.132074,273.2799 -1.581922,4.11607 c 0,0 -8.544074,11.78147 -29.283679,10.44534 C 40.403793,286.62478 36.948382,276.1281 36.948382,276.1281 l -1.041121,-5.11591"
         style="fill:#ffffff;stroke-width:0.26457968"
         inkscape:connector-curvature="0" />
      <path
         id="path4782"
         stroke-miterlimit="11.5"
         d="m 90.132074,273.2799 -1.581922,4.11607 c 0,0 -8.544074,11.78147 -29.283679,10.44534 C 40.403793,286.62478 36.948382,276.1281 36.948382,276.1281 l -1.041121,-5.11591"
         style="fill:none;stroke:#010101;stroke-width:0.67838228;stroke-linecap:round;stroke-linejoin:round;stroke-miterlimit:11.5"
         inkscape:connector-curvature="0" />
      <path
         id="path4784"
         d="m 86.629038,244.18143 -0.0926,-0.0691 -0.280453,-0.19791 -0.476244,-0.30903 -0.669386,-0.40269 -0.870468,-0.47757 -1.068901,-0.53101 -1.272627,-0.5654 -1.471065,-0.58023 -1.677435,-0.57413 -1.883807,-0.55218 -2.087533,-0.50614 -2.301843,-0.4437 -2.50557,-0.35957 -2.71988,-0.25638 -2.931543,-0.13414 -3.145851,0.007 -3.098229,0.14684 -2.791317,0.25929 -2.500278,0.35348 -2.225114,0.43205 -1.959477,0.49159 -1.711566,0.53578 -1.476884,0.56329 -1.257812,0.57255 -1.052233,0.56514 -0.861472,0.53948 -0.684467,0.49794 -0.523074,0.43946 -0.377026,0.36512 -0.243149,0.26961 -0.128057,0.16086 -0.03598,0.0529 -0.152133,0.14261 0.04763,-0.0307 -0.0085,0.006 -0.04842,0.09 -0.13864,0.34104 -0.178591,0.50932 -0.436027,1.46339 -0.480742,1.9182 -0.476508,2.26745 -0.425708,2.51351 -0.32464,2.65638 -0.179914,2.69342 0.0127,2.29126 0.160071,2.49498 0.263521,2.53997 0.320406,2.42355 0.329666,2.15368 0.294477,1.72506 0.117209,0.65351 0.09181,0.48947 0.05768,0.30427 0.0085,0.037 0.01138,0.0344 0.114563,0.29369 0.228333,0.49212 0.36803,0.65351 0.530483,0.78845 0.718862,0.89163 0.928146,0.96042 1.165738,0.99747 1.422116,1.00276 1.705481,0.971 2.011334,0.91016 2.337826,0.81226 2.690512,0.68526 3.066479,0.51857 3.463345,0.32544 3.881385,0.0952 3.219934,-0.15081 2.95271,-0.37835 2.696067,-0.57414 2.444716,-0.73818 2.20395,-0.86782 1.97112,-0.96307 1.743577,-1.02657 1.526625,-1.05567 1.317609,-1.05303 1.111234,-1.01598 0.920737,-0.94455 0.730239,-0.84401 0.552972,-0.70908 0.38364,-0.53974 0.216956,-0.33866 0.0079,-0.0106 0.54768,-2.13781 0.420682,-2.04785 0.296331,-1.91555 0.195789,-1.86 0.124351,-1.8838 0.07673,-1.98171 0.05556,-2.14309 0.05556,-2.32566 -0.116414,-2.68813 -0.336018,-2.47117 -0.486826,-2.23041 -0.5662,-1.93408 -0.566201,-1.58827 -0.494765,-1.19061 -0.349245,-0.74294 -0.06615,-0.12699 -0.0053,-0.003 0.35983,-1.44302 0.09789,0.0725 -0.04762,-0.0288 0.05821,0.037 0.145518,0.19023 0.140229,0.26855 0.01323,0.0257 0.362477,0.77548 0.01587,0.0363 0.513284,1.23082 0.01587,0.0466 0.587367,1.64171 0.01852,0.0582 0.584721,2.00287 -0.0635,-0.16404 0.08202,0.24077 0.505349,2.31507 -0.0291,-0.11641 0.04762,0.21431 0.35189,2.57965 -0.0026,-0.0265 0.01323,0.14816 0.121705,2.79926 v 0.0106 l 0.0026,0.082 -0.06085,2.37328 -0.05292,2.15368 v 0.0185 l -0.07937,2.00816 v 0.037 l -0.129643,1.92614 -0.0026,0.0529 -0.203727,1.9182 -0.0079,0.0609 -0.306912,1.97906 -0.01058,0.0609 -0.433911,2.10605 -0.01058,0.0529 -0.590012,2.30449 -0.09525,0.23812 -0.04498,0.0688 0.03969,-0.0635 -0.07408,0.127 -0.01323,0.0238 -0.232831,0.36248 -0.01587,0.0212 -0.399515,0.56621 -0.01852,0.0212 -0.568846,0.73024 -0.01852,0.0238 -0.751409,0.86517 -0.01852,0.0212 -0.93926,0.96836 -0.02117,0.0185 -1.132403,1.03451 -0.02117,0.0185 -1.338773,1.0689 -0.02117,0.0159 -1.547791,1.07155 -0.02381,0.0132 -1.764747,1.0398 -0.02646,0.0132 -1.992283,0.97365 -0.02117,0.0106 -2.227762,0.87576 -0.02117,0.008 -2.468528,0.74347 -0.02381,0.008 -2.714585,0.57943 -0.02381,0.003 -2.973877,0.38365 -0.02117,0.003 -3.238455,0.14816 -0.01852,0.003 -3.899903,-0.0979 h -0.01852 l -3.481869,-0.32808 -0.01852,-0.003 -3.087646,-0.52387 -0.02117,-0.005 -2.712206,-0.6879 -0.02381,-0.008 -2.363226,-0.8202 -0.02514,-0.0106 -2.038057,-0.92074 -0.02593,-0.0132 -1.732997,-0.98953 -0.0291,-0.0159 -1.453071,-1.02393 -0.03122,-0.0238 -1.194577,-1.02392 -0.03096,-0.0291 -0.961218,-0.99217 -0.03096,-0.037 -0.750348,-0.93132 -0.03069,-0.0423 -0.562232,-0.83342 -0.02937,-0.0476 -0.395811,-0.70642 -0.02752,-0.0529 -0.254525,-0.54503 -0.02487,-0.0556 -0.1352,-0.35189 -0.01984,-0.0529 -0.03889,-0.12435 0.03889,0.10318 -0.07435,-0.23547 -0.02037,-0.10848 -0.0013,-0.003 -0.06006,-0.3122 -7.94e-4,-0.008 -0.09313,-0.49476 -0.0021,-0.008 -0.118796,-0.66145 -0.0021,-0.0132 -0.296593,-1.74093 -0.0032,-0.0238 -0.333635,-2.1722 -0.0042,-0.0291 -0.324639,-2.4553 -0.0042,-0.037 -0.26749,-2.58494 -0.0042,-0.0503 -0.164303,-2.55849 0.0032,0.0318 -0.005,-0.11112 -0.01429,-2.38386 5.29e-4,-0.0556 0.0024,-0.0423 0.184677,-2.77808 0.0074,-0.0794 v 0.005 l 0.331783,-2.72252 0.0093,-0.0582 0.43444,-2.56642 0.009,-0.0476 0.487091,-2.31242 0.01032,-0.045 0.492647,-1.96318 0.01244,-0.0476 0.450579,-1.51101 0.01482,-0.0463 0.193937,-0.55721 0.01878,-0.0466 0.166156,-0.40719 0.03836,-0.0818 0.13229,-0.24579 0.103451,-0.14261 0.05583,-0.0476 -0.01376,0.009 0.09128,-0.0704 -0.10451,0.11165 0.04868,-0.0672 0.0217,-0.0288 0.148694,-0.19024 0.02381,-0.0278 0.26749,-0.29659 0.02302,-0.0238 0.39978,-0.38655 0.02381,-0.0196 0.544505,-0.45905 0.02169,-0.0175 0.706957,-0.51355 0.0217,-0.0146 0.882903,-0.55403 0.01852,-0.0116 1.071548,-0.57414 0.01984,-0.01 1.276332,-0.58075 0.0164,-0.008 1.495668,-0.56991 0.01561,-0.005 1.728764,-0.54053 0.01455,-0.004 1.976145,-0.49609 0.01349,-0.003 2.237286,-0.43391 0.01323,-0.003 2.513507,-0.3548 0.01323,-0.002 2.804544,-0.26035 h 0.01058 l 3.108812,-0.14895 h 0.01323 l 3.15908,-0.008 h 0.01058 l 2.947419,0.1352 0.01058,0.001 2.733109,0.25823 0.01058,0.001 2.52409,0.36195 0.01058,0.002 2.312427,0.44555 0.01058,0.003 2.103409,0.50931 0.01323,0.003 1.89439,0.55535 0.01323,0.004 1.688018,0.57996 0.01323,0.004 1.48694,0.58499 0.01058,0.005 1.280567,0.57017 0.01323,0.007 1.08213,0.5363 0.01323,0.006 0.88105,0.48392 0.01058,0.006 0.682617,0.41036 0.01323,0.006 0.48418,0.31855 0.01323,0.007 0.288393,0.2032 0.01058,0.008 0.09789,0.0725 -0.359828,1.44275"
         style="fill:#010101;stroke-width:0.26457968"
         inkscape:connector-curvature="0" />
      <path
         id="path4786"
         stroke-miterlimit="11.5"
         d="m 76.466533,224.0403 c 0,0 1.47556,2.95271 1.47556,5.66095 0,2.70639 -0.246057,6.31896 -0.246057,6.31896 l 2.460855,1.14086 c 0,0 0.491852,-2.04731 0.247645,-5.24502 -0.247645,-3.19877 -1.476883,-6.88939 -1.476883,-6.88939"
         style="fill:none;stroke:#010101;stroke-width:0.67838228;stroke-linecap:round;stroke-linejoin:round;stroke-miterlimit:11.5"
         inkscape:connector-curvature="0" />
      <path
         id="path4788"
         stroke-miterlimit="11.5"
         d="m 48.987287,224.2853 c 0,0 -1.476884,2.95271 -1.476884,5.65857 0,2.70586 0.247117,6.48802 0.247117,6.48802 l -2.460855,0.97048 c 0,0 -0.492912,-2.04494 -0.246059,-5.2437 0.246852,-3.19877 1.475296,-6.88939 1.475296,-6.88939"
         style="fill:none;stroke:#010101;stroke-width:0.67838228;stroke-linecap:round;stroke-linejoin:round;stroke-miterlimit:11.5"
         inkscape:connector-curvature="0" />
      <path
         id="path4790"
         d="m 34.122935,251.71931 -3.828468,0.14737 c 0,0 -1.125522,2.39788 -0.91227,6.16814 0.211134,3.77159 1.173675,6.29197 1.173675,6.29197 l 4.073204,-0.13229 c 0,0 -0.482858,-2.24681 -0.559321,-6.25598 -0.07514,-4.00839 0.05318,-6.22027 0.05318,-6.22027"
         style="fill:#ffffff;stroke-width:0.26457968"
         inkscape:connector-curvature="0" />
      <path
         id="path4792"
         stroke-miterlimit="11.5"
         d="m 34.122935,251.71931 -3.828468,0.14737 c 0,0 -1.125522,2.39788 -0.91227,6.16814 0.211134,3.77159 1.173675,6.29197 1.173675,6.29197 l 4.073204,-0.13229 c 0,0 -0.482858,-2.24681 -0.559321,-6.25598 -0.07514,-4.00839 0.05318,-6.22027 0.05318,-6.22027 z"
         style="fill:none;stroke:#010101;stroke-width:0.90486252;stroke-linecap:round;stroke-linejoin:round;stroke-miterlimit:11.5"
         inkscape:connector-curvature="0" />
      <path
         id="path4794"
         d="m 35.645327,257.85226 c 0.06297,3.36995 -0.437879,6.11735 -1.116262,6.12979 -0.67997,0.0124 -1.281888,-2.71433 -1.343536,-6.08428 -0.06376,-3.36995 0.435763,-6.11708 1.115468,-6.12978 0.679706,-0.0127 1.280566,2.71459 1.34433,6.08533"
         style="fill:#ffffff;stroke-width:0.26457968"
         inkscape:connector-curvature="0" />
      <path
         id="path4796"
         stroke-miterlimit="11.5"
         d="m 35.645327,257.85226 c 0.06297,3.36995 -0.437879,6.11735 -1.116262,6.12979 -0.67997,0.0124 -1.281888,-2.71433 -1.343536,-6.08428 -0.06376,-3.36995 0.435763,-6.11708 1.115468,-6.12978 0.679706,-0.0127 1.280566,2.71459 1.34433,6.08533 z"
         style="fill:none;stroke:#010101;stroke-width:0.90486252;stroke-linecap:round;stroke-linejoin:round;stroke-miterlimit:11.5"
         inkscape:connector-curvature="0" />
      <path
         id="path4798"
         d="m 35.821008,253.66661 -1.045619,0.1815 c 0,0 -0.337604,2.01372 -0.36856,4.04728 -0.02831,2.0333 0.248176,4.08379 0.248176,4.08379 l 1.045884,-0.18203 0.120119,-8.13318"
         style="fill:#010101;stroke-width:0.26457968"
         inkscape:connector-curvature="0" />
      <path
         id="path4800"
         stroke-miterlimit="11.5"
         d="m 35.821008,253.66661 -1.045619,0.1815 c 0,0 -0.337604,2.01372 -0.36856,4.04728 -0.02831,2.0333 0.248176,4.08379 0.248176,4.08379 l 1.045884,-0.18203 0.120119,-8.13318 z"
         style="fill:none;stroke:#010101;stroke-width:0.90486252;stroke-linecap:round;stroke-linejoin:round;stroke-miterlimit:11.5"
         inkscape:connector-curvature="0" />
      <path
         id="path4802"
         d="m 92.92868,251.71666 3.828468,0.14631 c 0,0 1.12658,2.39921 0.914652,6.16947 -0.213249,3.77132 -1.174996,6.29197 -1.174996,6.29197 l -4.073205,-0.13229 c 0,0 0.484708,-2.24681 0.558792,-6.25625 0.07143,-4.00574 -0.05556,-6.21762 -0.05556,-6.21762"
         style="fill:#ffffff;stroke-width:0.26457968"
         inkscape:connector-curvature="0" />
      <path
         id="path4804"
         stroke-miterlimit="11.5"
         d="m 92.92868,251.71666 3.828468,0.14631 c 0,0 1.12658,2.39921 0.914652,6.16947 -0.213249,3.77132 -1.174996,6.29197 -1.174996,6.29197 l -4.073205,-0.13229 c 0,0 0.484708,-2.24681 0.558792,-6.25625 0.07143,-4.00574 -0.05556,-6.21762 -0.05556,-6.21762 z"
         style="fill:none;stroke:#010101;stroke-width:0.90486252;stroke-linecap:round;stroke-linejoin:round;stroke-miterlimit:11.5"
         inkscape:connector-curvature="0" />
      <path
         id="path4806"
         d="m 91.439097,257.87872 c -0.06138,3.37022 0.438145,6.11629 1.116526,6.12978 0.679707,0.0124 1.281888,-2.713 1.345652,-6.08295 0.06165,-3.37207 -0.43788,-6.11708 -1.117584,-6.12978 -0.679706,-0.0127 -1.28321,2.71194 -1.34671,6.08269"
         style="fill:#ffffff;stroke-width:0.26457968"
         inkscape:connector-curvature="0" />
      <path
         id="path4808"
         stroke-miterlimit="11.5"
         d="m 91.439097,257.87872 c -0.06138,3.37022 0.438145,6.11629 1.116526,6.12978 0.679707,0.0124 1.281888,-2.713 1.345652,-6.08295 0.06165,-3.37207 -0.43788,-6.11708 -1.117584,-6.12978 -0.679706,-0.0127 -1.28321,2.71194 -1.34671,6.08269 z"
         style="fill:none;stroke:#010101;stroke-width:0.90486252;stroke-linecap:round;stroke-linejoin:round;stroke-miterlimit:11.5"
         inkscape:connector-curvature="0" />
      <path
         id="path4810"
         d="m 91.253892,253.66397 1.022866,0.18203 c 0,0 0.333105,2.0153 0.364855,4.04754 0.03175,2.03224 -0.237064,4.08379 -0.237064,4.08379 l -1.023131,-0.18256 -0.126997,-8.13054"
         style="fill:#010101;stroke-width:0.26457968"
         inkscape:connector-curvature="0" />
      <path
         id="path4812"
         stroke-miterlimit="11.5"
         d="m 91.253892,253.66397 1.022866,0.18203 c 0,0 0.333105,2.0153 0.364855,4.04754 0.03175,2.03224 -0.237064,4.08379 -0.237064,4.08379 l -1.023131,-0.18256 -0.126997,-8.13054 z"
         style="fill:none;stroke:#010101;stroke-width:0.90486252;stroke-linecap:round;stroke-linejoin:round;stroke-miterlimit:11.5"
         inkscape:connector-curvature="0" />
      <path
         id="path4814"
         d="m 34.747343,251.68756 c 0,0 0.240503,-7.46882 0.964658,-9.39814 0.723096,-1.92746 3.373391,-1.2041 3.373391,-1.2041 0,0 -1.928521,3.13262 -2.408734,7.95089 -0.314055,3.11674 0.23971,3.85492 -1.929315,2.65108"
         style="fill:#ffffff;stroke-width:0.26457968"
         inkscape:connector-curvature="0" />
      <path
         id="path4816"
         stroke-miterlimit="11.5"
         d="m 34.747343,251.68756 c 0,0 0.240503,-7.46882 0.964658,-9.39814 0.723096,-1.92746 3.373391,-1.2041 3.373391,-1.2041 0,0 -1.928521,3.13262 -2.408734,7.95089 -0.314055,3.11674 0.23971,3.85492 -1.929315,2.65108 z"
         style="fill:none;stroke:#010101;stroke-width:0.67838228;stroke-linecap:round;stroke-linejoin:round;stroke-miterlimit:11.5"
         inkscape:connector-curvature="0" />
      <path
         id="path4818"
         d="m 92.333376,251.92832 c 0,0 -0.241824,-7.46961 -0.964658,-9.39707 -0.722831,-1.92747 -3.372331,-1.20516 -3.372331,-1.20516 0,0 1.926404,3.13156 2.408732,7.95194 0.314851,3.11939 -0.235474,3.85757 1.931432,2.65109"
         style="fill:#ffffff;stroke-width:0.26457968"
         inkscape:connector-curvature="0" />
      <path
         id="path4820"
         stroke-miterlimit="11.5"
         d="m 92.333376,251.92832 c 0,0 -0.241824,-7.46961 -0.964658,-9.39707 -0.722831,-1.92747 -3.372331,-1.20516 -3.372331,-1.20516 0,0 1.926404,3.13156 2.408732,7.95194 0.314851,3.11939 -0.235474,3.85757 1.931432,2.65109 z"
         style="fill:none;stroke:#010101;stroke-width:0.67838228;stroke-linecap:round;stroke-linejoin:round;stroke-miterlimit:11.5"
         inkscape:connector-curvature="0" />
      <path
         id="path4822"
         stroke-miterlimit="14.3"
         d="M 34.721679,275.06053 H 36.74492"
         style="fill:none;stroke:#010101;stroke-width:0.67838228;stroke-miterlimit:14.30000019"
         inkscape:connector-curvature="0" />
      <path
         id="path4824"
         stroke-miterlimit="14.3"
         d="m 38.935111,283.48739 2.359521,1.51869 8.42898,3.54007 6.068665,1.34936"
         style="fill:none;stroke:#010101;stroke-width:0.67838228;stroke-linecap:round;stroke-linejoin:round;stroke-miterlimit:14.30000019"
         inkscape:connector-curvature="0" />
      <path
         id="path4826"
         stroke-miterlimit="14.3"
         d="m 48.206777,291.24222 1.181083,-2.52674"
         style="fill:none;stroke:#010101;stroke-width:0.67838228;stroke-linecap:round;stroke-linejoin:round;stroke-miterlimit:14.30000019"
         inkscape:connector-curvature="0" />
      <path
         id="path4828"
         stroke-miterlimit="14.3"
         d="m 39.947128,287.70214 1.349621,-2.52673"
         style="fill:none;stroke:#010101;stroke-width:0.67838228;stroke-linecap:round;stroke-linejoin:round;stroke-miterlimit:14.30000019"
         inkscape:connector-curvature="0" />
      <path
         id="path4830"
         stroke-miterlimit="14.3"
         d="m 90.179697,273.37515 2.024036,1.34936"
         style="fill:none;stroke:#010101;stroke-width:0.67838228;stroke-miterlimit:14.30000019"
         inkscape:connector-curvature="0" />
      <path
         id="path4832"
         d="m 47.995642,250.19268 c -0.769662,2.09706 -2.742633,3.30169 -4.403135,2.6913 -1.659179,-0.61091 -2.379101,-2.8056 -1.608115,-4.90266 0.770985,-2.09494 2.742897,-3.30142 4.403399,-2.69024 1.659709,0.61065 2.379895,2.80666 1.607851,4.90213"
         style="fill:#ffffff;stroke-width:0.26457968"
         inkscape:connector-curvature="0" />
      <path
         id="path4834"
         stroke-miterlimit="14.3"
         d="m 47.995642,250.19268 c -0.769662,2.09706 -2.742633,3.30169 -4.403135,2.6913 -1.659179,-0.61091 -2.379101,-2.8056 -1.608115,-4.90266 0.770985,-2.09494 2.742897,-3.30142 4.403399,-2.69024 1.659709,0.61065 2.379895,2.80666 1.607851,4.90213 z"
         style="fill:none;stroke:#010101;stroke-width:0.45296043;stroke-miterlimit:14.30000019"
         inkscape:connector-curvature="0" />
      <path
         id="path4836"
         d="m 50.604398,243.29879 c -0.361416,0.9853 -1.287445,1.55176 -2.066897,1.26575 -0.779187,-0.2876 -1.116262,-1.31813 -0.75511,-2.30369 0.361416,-0.9853 1.287444,-1.55203 2.066896,-1.26469 0.778923,0.28627 1.116791,1.31866 0.755111,2.30263"
         style="fill:#ffffff;stroke-width:0.26457968"
         inkscape:connector-curvature="0" />
      <path
         id="path4838"
         stroke-miterlimit="14.3"
         d="m 50.604398,243.29879 c -0.361416,0.9853 -1.287445,1.55176 -2.066897,1.26575 -0.779187,-0.2876 -1.116262,-1.31813 -0.75511,-2.30369 0.361416,-0.9853 1.287444,-1.55203 2.066896,-1.26469 0.778923,0.28627 1.116791,1.31866 0.755111,2.30263 z"
         style="fill:none;stroke:#010101;stroke-width:0.45296043;stroke-miterlimit:14.30000019"
         inkscape:connector-curvature="0" />
      <path
         id="path4840"
         d="m 95.428958,271.68449 -3.960492,-0.3593 c 0,0 -0.634198,0.95804 -0.785802,2.59076 -0.151603,1.63272 0.0971,2.77703 0.0971,2.77703 l 4.062886,0.38073 c 0,0 -0.06112,-0.9964 0.163245,-2.72331 0.224893,-1.72506 0.420682,-2.66697 0.420682,-2.66697"
         style="fill:#ffffff;stroke-width:0.26457968"
         inkscape:connector-curvature="0" />
      <path
         id="path4842"
         stroke-miterlimit="14.3"
         d="m 95.428958,271.68449 -3.960492,-0.3593 c 0,0 -0.634198,0.95804 -0.785802,2.59076 -0.151603,1.63272 0.0971,2.77703 0.0971,2.77703 l 4.062886,0.38073 c 0,0 -0.06112,-0.9964 0.163245,-2.72331 0.224893,-1.72506 0.420682,-2.66697 0.420682,-2.66697 z"
         style="fill:none;stroke:#010101;stroke-width:0.90486252;stroke-linecap:round;stroke-linejoin:round;stroke-miterlimit:14.30000019"
         inkscape:connector-curvature="0" />
      <path
         id="path4844"
         d="m 95.698831,274.39114 c -0.190498,1.45043 -0.578901,2.59764 -0.870204,2.56113 -0.291301,-0.0365 -0.371999,-1.24643 -0.182031,-2.69792 0.188116,-1.45095 0.578901,-2.59923 0.867823,-2.56166 0.293682,0.037 0.373057,1.24617 0.185206,2.69871"
         style="fill:#ffffff;stroke-width:0.26457968"
         inkscape:connector-curvature="0" />
      <path
         id="path4846"
         stroke-miterlimit="14.3"
         d="m 95.698831,274.39114 c -0.190498,1.45043 -0.578901,2.59764 -0.870204,2.56113 -0.291301,-0.0365 -0.371999,-1.24643 -0.182031,-2.69792 0.188116,-1.45095 0.578901,-2.59923 0.867823,-2.56166 0.293682,0.037 0.373057,1.24617 0.185206,2.69871 z"
         style="fill:none;stroke:#010101;stroke-width:0.90486252;stroke-linecap:round;stroke-linejoin:round;stroke-miterlimit:14.30000019"
         inkscape:connector-curvature="0" />
      <path
         id="path4848"
         d="m 89.182233,267.34538 c 0,0 -4.851334,3.23502 -10.240028,4.58067 -5.388695,1.3483 -7.00554,1.3483 -7.00554,1.3483 0,0 -1.077635,-1.88751 -4.580406,-1.88751 -3.502768,0 -3.502504,1.88751 -3.502504,3.5025 0,1.61738 1.886189,1.88619 4.041984,1.88619 2.155794,0 4.040397,-1.07631 4.040397,-1.07631 0,0 4.041981,-0.27013 7.275941,-1.07737 3.233428,-0.80882 9.430412,-3.23422 9.430412,-3.23422"
         style="fill:#010101;stroke-width:0.26457968"
         inkscape:connector-curvature="0" />
      <path
         id="path4850"
         stroke-miterlimit="14.3"
         d="m 97.516492,235.28811 2.02774,0.004 c 0.967298,0.001 1.765798,0.80088 1.765798,1.76898 v 9.95375 c 0,0.96942 -0.7985,1.76528 -1.765798,1.76316 L 95.4914,248.771 c -0.96942,-10e-4 -1.767922,-0.79957 -1.767922,-1.76951 v -9.95138 c 0,-0.96836 0.798502,-1.76421 1.767922,-1.7621 l 2.026679,0.002 z"
         style="fill:#ffffff;stroke:#010101;stroke-width:0.90486252;stroke-linecap:round;stroke-linejoin:round;stroke-miterlimit:14.30000019"
         inkscape:connector-curvature="0" />
      <path
         id="path4852"
         d="m 100.22843,239.53568 c -0.274893,1.34459 -1.633245,2.20447 -3.031285,1.9182 -1.399363,-0.28363 -2.312691,-1.60785 -2.037792,-2.9535 0.274897,-1.3446 1.632985,-2.20448 3.032348,-1.91821 1.399624,0.28416 2.312429,1.60785 2.037259,2.95351"
         style="fill:#aaabaa;stroke-width:0.26457968"
         inkscape:connector-curvature="0" />
      <path
         id="path4854"
         d="m 100.45068,245.74113 c -0.27384,1.34565 -1.63325,2.20553 -3.031288,1.92058 -1.399362,-0.28627 -2.311897,-1.60917 -2.038059,-2.9535 0.2749,-1.34592 1.633252,-2.2058 3.03235,-1.92085 1.399625,0.28707 2.315067,1.60997 2.037267,2.95483"
         style="fill:#aaabaa;stroke-width:0.26457968"
         inkscape:connector-curvature="0" />
      <path
         id="path4856"
         d="m 98.27319,239.15442 c 0,1.11652 -0.567788,2.02297 -1.26469,2.02297 -0.699019,0 -1.264693,-0.9075 -1.264693,-2.02297 0,-1.11547 0.566733,-2.02324 1.264693,-2.02324 0.69796,0 1.26469,0.90724 1.26469,2.02324"
         style="fill:#010101;stroke-width:0.26457968"
         inkscape:connector-curvature="0" />
      <path
         id="path4858"
         stroke-miterlimit="14.3"
         d="m 98.27319,239.15442 c 0,1.11652 -0.567788,2.02297 -1.26469,2.02297 -0.699019,0 -1.264693,-0.9075 -1.264693,-2.02297 0,-1.11547 0.566733,-2.02324 1.264693,-2.02324 0.69796,0 1.26469,0.90724 1.26469,2.02324 z"
         style="fill:none;stroke:#010101;stroke-width:0.90486252;stroke-linecap:round;stroke-linejoin:round;stroke-miterlimit:14.30000019"
         inkscape:connector-curvature="0" />
      <path
         id="path4860"
         d="m 98.44252,245.05481 c 0,1.11626 -0.566465,2.02324 -1.263367,2.02324 -0.699283,0 -1.264954,-0.90804 -1.264954,-2.02324 0,-1.11759 0.566994,-2.02324 1.264954,-2.02324 0.697961,0 1.26469,0.90539 1.26469,2.02271"
         style="fill:#010101;stroke-width:0.26457968"
         inkscape:connector-curvature="0" />
      <path
         id="path4862"
         stroke-miterlimit="14.3"
         d="m 98.44252,245.05481 c 0,1.11626 -0.566465,2.02324 -1.263367,2.02324 -0.699283,0 -1.264954,-0.90804 -1.264954,-2.02324 0,-1.11759 0.566994,-2.02324 1.264954,-2.02324 0.697961,0 1.26469,0.90539 1.26469,2.02271 z"
         style="fill:none;stroke:#010101;stroke-width:0.90486252;stroke-linecap:round;stroke-linejoin:round;stroke-miterlimit:14.30000019"
         inkscape:connector-curvature="0" />
      <path
         id="path4864"
         stroke-miterlimit="14.3"
         d="m 100.22843,239.53568 c -0.274893,1.34459 -1.633245,2.20447 -3.031285,1.9182 -1.399363,-0.28363 -2.312691,-1.60785 -2.037792,-2.9535 0.274897,-1.3446 1.632985,-2.20448 3.032348,-1.91821 1.399624,0.28416 2.312429,1.60785 2.037259,2.95351 z"
         style="fill:none;stroke:#010101;stroke-width:0.90486252;stroke-linecap:round;stroke-linejoin:round;stroke-miterlimit:14.30000019"
         inkscape:connector-curvature="0" />
      <path
         id="path4866"
         stroke-miterlimit="14.3"
         d="m 100.45068,245.74113 c -0.27384,1.34565 -1.63325,2.20553 -3.031288,1.92058 -1.399362,-0.28627 -2.311897,-1.60917 -2.038059,-2.9535 0.2749,-1.34592 1.633252,-2.2058 3.03235,-1.92085 1.399625,0.28707 2.315067,1.60997 2.037267,2.95483 z"
         style="fill:none;stroke:#010101;stroke-width:0.90486252;stroke-linecap:round;stroke-linejoin:round;stroke-miterlimit:14.30000019"
         inkscape:connector-curvature="0" />
    </g>
    <text
       xml:space="preserve"
       style="font-style:normal;font-weight:normal;font-size:10.58333302px;line-height:1.25;font-family:Megrim;letter-spacing:0px;word-spacing:0px;fill:#000000;fill-opacity:1;stroke:none;stroke-width:0.26458332;-inkscape-font-specification:Megrim;font-stretch:normal;font-variant:normal;"
       x="47.707607"
       y="261.98767"
       id="text5208"><tspan
         sodipodi:role="line"
         id="tspan5206"
         x="47.707607"
         y="261.98767"
         style="stroke-width:0.26458332;-inkscape-font-specification:Megrim;font-family:Megrim;font-weight:normal;font-style:normal;font-stretch:normal;font-variant:normal;fill:#ffffff;font-size:14.11111111px">SpaceSuit</tspan></text>
  </g>
</svg>
