<?xml version="1.0" encoding="UTF-8" standalone="no"?>
<svg
   xmlns:dc="http://purl.org/dc/elements/1.1/"
   xmlns:cc="http://creativecommons.org/ns#"
   xmlns:rdf="http://www.w3.org/1999/02/22-rdf-syntax-ns#"
   xmlns:svg="http://www.w3.org/2000/svg"
   xmlns="http://www.w3.org/2000/svg"
   id="svg47"
   viewBox="0 0 300 300"
   height="300"
   width="300"
   version="1.1">
  <metadata
     id="metadata53">
    <rdf:RDF>
      <cc:Work
         rdf:about="">
        <dc:format>image/svg+xml</dc:format>
        <dc:type
           rdf:resource="http://purl.org/dc/dcmitype/StillImage" />
        <dc:title></dc:title>
      </cc:Work>
    </rdf:RDF>
  </metadata>
  <defs
     id="defs51" />
  <g
     transform="matrix(1.3411906,0,0,1.341189,150.11236,149.88764)"
     id="widget">
    <path
       style="fill:#011534;fill-opacity:1;stroke:#ffcc1a;stroke-width:2.42803001;stroke-linecap:square;stroke-linejoin:miter"
       id="path2"
       d="m 0,110.42292 v 0 c -61.023192,0 -110.42292,-49.399725 -110.42292,-110.42292170705 v 0 C -110.42292,-61.02319 -61.023192,-110.42292 0,-110.42292 v 0 c 61.02318,0 110.42292,49.39973 110.42292,110.42291829295 v 0 C 110.42292,61.023195 61.02318,110.42292 0,110.42292 Z" />
    <path
       style="fill:#345b7d;fill-opacity:1;stroke:#345b7d;stroke-width:6.08057022;stroke-linecap:round;stroke-linejoin:round"
       id="path4"
       d="M -1.367347e-6,30.051913 C -29.645895,30.051913 -56.291908,43.127647 -76.585229,65.69383 -56.468372,87.416416 -29.469434,101.33575 -1.367347e-6,101.33575 29.469431,101.33575 56.291908,88.049116 76.585229,65.69383 56.468369,43.971241 29.292963,30.051913 -1.367347e-6,30.051913 Z" />
    <path
       style="fill:#dce8eb;fill-opacity:1"
       id="path6"
       d="m -57.201407,15.979063 c 0,-10.5684677 9.322839,-19.1045375 20.865408,-19.1045375 11.542569,0 20.865414,8.5360698 20.865414,19.1045375 v 7.570679 c 0,10.568464 -9.322845,19.104531 -20.865414,19.104531 -11.542569,0 -20.865408,-8.536067 -20.865408,-19.104531 z" />
    <path
       style="fill:#dce8eb;fill-opacity:1"
       id="path8"
       d="m -37.881064,40.463933 c 0,-13.508374 -3.542722,-24.418986 -7.928952,-24.418986 -4.386229,0 -7.928954,10.910612 -7.928954,24.418986 v 9.676673 c 0,13.508363 3.542725,24.418975 7.928954,24.418975 4.38623,0 7.928952,-10.910612 7.928952,-24.418975 z" />
    <path
       style="fill:#dce8eb;fill-opacity:1"
       id="path10"
       d="m -19.922423,40.463933 c 0,-13.508374 -3.542722,-24.418986 -7.928951,-24.418986 -4.38623,0 -7.928954,10.910612 -7.928954,24.418986 v 9.676673 c 0,13.508363 3.542724,24.418975 7.928954,24.418975 4.386229,0 7.928951,-10.910612 7.928951,-24.418975 z" />
    <path
       style="fill:#dce8eb;fill-opacity:1"
       id="path12"
       d="m -58.309877,-7.5127535 c 0.207954,0 0.415909,0 0.693182,-0.06932 3.327275,8.595462 11.714782,14.7647832 21.488654,14.7647832 9.773873,0 18.16138,-6.100004 21.488653,-14.6954634 0.06932,0 0.207956,0 0.277274,0 3.11932,0 5.6147754,-3.7431853 5.6147754,-8.3875073 0,-3.743183 -1.6636384,-6.862505 -3.8818204,-7.971597 v -10.605689 c 1.594322,-0.485228 2.7727297,-2.010229 2.7727297,-3.743185 0,-2.148865 -1.7329557,-3.951139 -3.9511367,-3.951139 -2.14887,0 -3.951143,1.802274 -3.951143,3.951139 0,1.732956 1.178413,3.257957 2.772729,3.743185 v 9.42728 c -3.535228,-8.179552 -11.645462,-13.932966 -21.142061,-13.932966 -9.773872,0 -18.161379,6.100005 -21.488654,14.764784 -0.207954,-0.06932 -0.415909,-0.06932 -0.693182,-0.06932 -3.11932,0 -5.614777,3.743185 -5.614777,8.387506 0,4.644322 2.495457,8.3875073 5.614777,8.3875073 z m 6.238641,-17.0522875 c 9.981825,-4.64432 21.488654,-4.64432 31.470481,0 1.455681,2.564776 2.218181,5.545459 2.218181,8.66478 0,2.703412 -0.62386,5.337504 -1.663636,7.6250053 -10.259098,4.9909134 -22.320473,4.9909134 -32.579573,0 -1.109091,-2.2181843 -1.663637,-4.8522763 -1.663637,-7.5556863 0,-3.18864 0.762501,-6.169323 2.218184,-8.734099 z" />
    <path
       style="fill:#dce8eb;fill-opacity:1"
       id="path14"
       d="m -45.763276,-16.940035 3.327274,2.01023 -2.010228,-3.396595 2.010228,-3.327274 -3.327274,2.01023 -3.327276,-2.01023 2.010228,3.327274 -2.010228,3.396595 z" />
    <path
       style="fill:#dce8eb;fill-opacity:1"
       id="path16"
       d="m -37.72236,-11.394576 2.495458,1.4556843 -1.525001,-2.4954583 1.525001,-2.495455 -2.495458,1.525002 -2.564775,-1.525002 1.525002,2.495455 -1.525002,2.4954583 z" />
    <path
       style="fill:#3162a6;fill-opacity:1"
       id="path18"
       d="m -36.122617,-36.216226 c 10.960079,0 19.844976,8.574248 19.844976,19.151119 0,10.5768705 -8.884897,19.1511176 -19.844976,19.1511176 -10.960078,0 -19.844977,-8.5742471 -19.844977,-19.1511176 0,-10.576871 8.884899,-19.151119 19.844977,-19.151119 z" />
    <path
       style="fill:#dce8eb;fill-opacity:1"
       id="path20"
       d="m -52.987394,65.457629 c -0.520152,-3.642439 -0.748484,-8.772661 7.660364,-6.740278 9.027772,2.181974 9.200016,10.81536 4.379859,14.683265 -5.907381,4.721224 -14.322826,3.276877 -17.355858,1.806769 -3.028222,-1.49001 -3.795136,-4.391886 -1.807657,-5.511942 1.98748,-1.120061 7.629615,-0.725061 7.123292,-4.237814 z" />
    <path
       style="fill:#dce8eb;fill-opacity:1"
       id="path22"
       d="m -20.594563,65.457634 c 0.520157,-3.642447 0.74849,-8.772669 -7.660358,-6.740287 -9.027766,2.181973 -9.200012,10.815366 -4.379858,14.683272 5.907381,4.721224 14.32282,3.276879 17.355851,1.80677 3.028221,-1.490015 3.795136,-4.391886 1.807656,-5.511947 -1.987473,-1.120064 -7.629614,-0.725056 -7.123291,-4.237808 z" />
    <path
       style="fill:#dce8eb;fill-opacity:1"
       id="path24"
       d="m 8.4616245,15.370739 c 4.0584155,0 7.3051475,-2.658803 7.3051475,-5.9084519 0,-3.2496486 -3.287319,-5.9084522 -7.3051475,-5.9084522 H -20.596628 V 15.370739 c 0,0 29.0582525,0 29.0582525,0 z" />
    <path
       style="fill:#ffcc1a;fill-opacity:1;stroke:#ffcc1a;stroke-width:1.81594002;stroke-linecap:square;stroke-linejoin:miter"
       id="path26"
       d="m 8.5466143,73.396018 c 0,-43.53435 0,-87.464531 0,-130.998881 M 6.788126,73.396018 c 0,-43.53435 0,-87.464531 0,-130.998881" />
    <path
       style="fill:#dce8eb;fill-opacity:1"
       id="path28"
       d="m -80.247495,1.5158178 c -3.514691,-2.02920753 -4.997041,-5.955165 -3.372217,-8.7694432 1.624824,-2.8142786 5.801128,-3.4732106 9.280669,-1.4642961 L -49.173858,5.8112049 -55.08231,16.044944 c 0,0 -25.165185,-14.5291262 -25.165185,-14.5291262 z" />
    <path
       style="fill:#dce8eb;fill-opacity:1"
       id="path30"
       d="m -77.10832,-16.127677 c 0.329987,-1.200362 1.380374,-1.944467 2.341527,-1.68024 0.961152,0.264227 1.48026,1.452707 1.153573,2.641065 l -2.362709,8.5945954 -3.495101,-0.9608255 c 0,0 2.36271,-8.5945949 2.36271,-8.5945949 z" />
    <path
       style="fill:#dce8eb;fill-opacity:1"
       id="path32"
       d="m -81.002103,-16.05018 c -0.390224,-1.182154 -1.476871,-1.872228 -2.423443,-1.559768 -0.946573,0.312459 -1.40496,1.525653 -1.018638,2.695984 l 2.794001,8.4642193 3.442082,-1.136216 c 0,0 -2.794002,-8.4642193 -2.794002,-8.4642193 z" />
    <path
       style="fill:#dce8eb;fill-opacity:1"
       id="path34"
       d="M 6.7650139,3.7998028 C 7.8431238,3.1773557 8.2978259,1.9730921 7.7994209,1.1098294 7.3010159,0.24656665 6.0199603,0.04444322 4.9526321,0.66066545 L -2.7666356,5.1173867 -0.95425376,8.256524 c 0,0 7.71926766,-4.4567212 7.71926766,-4.4567212 z" />
    <path
       style="fill:#ffcc1a;fill-opacity:1"
       id="path36"
       d="m 7.7666991,-55.556473 v 0 c -2.1061525,0 -3.8111328,-1.70498 -3.8111328,-3.811133 v 0 c 0,-2.106152 1.7049803,-3.811132 3.8111328,-3.811132 v 0 c 2.1061522,0 3.8111329,1.70498 3.8111329,3.811132 v 0 c 0,2.106153 -1.7049807,3.811133 -3.8111329,3.811133 z" />
    <path
       style="fill:#ffffff;fill-opacity:1"
       id="path38"
       d="m -25.919582,-28.118345 c 0.878356,1.521357 0.3571,3.466709 -1.164257,4.345064 -1.521357,0.878356 -3.466708,0.357101 -4.345064,-1.164256 -0.878356,-1.521357 -0.3571,-3.466708 1.164256,-4.345064 1.521357,-0.878356 3.466709,-0.357101 4.345065,1.164256 z" />
    <path
       style="fill:#ffffff;fill-opacity:1"
       id="path40"
       d="m -31.598213,-22.618596 c 0.506776,0.877761 0.206032,2.00015 -0.671729,2.506926 -0.877762,0.506776 -2.000151,0.206033 -2.506927,-0.671729 -0.506775,-0.877761 -0.206032,-2.000151 0.671729,-2.506926 0.877762,-0.506776 2.000151,-0.206033 2.506927,0.671729 z" />
    <path
       style="fill:#bed2d9;fill-opacity:1"
       id="path42"
       d="M 84.575511,-21.084407 V -53.61975 c 0.0019,0 0.0039,0 0.0058,0 0,-2.750588 0,-5.46636 0,-8.216948 -24.697066,0 -49.394134,6.093076 -74.009149,6.093076 0,0.03928 0,0.07857 0,0.117855 h -0.0058 v 41.33379 h 0.0058 c 0,2.517234 0,5.0319945 0,7.5175904 24.697066,0 49.394131,-6.0930754 74.009149,-6.0930754 0,-2.750588 0,-5.466359 0,-8.216945 -0.0019,0 -0.0039,0 -0.0058,0 z" />
    <path
       style="fill:#f7f9fe;fill-opacity:1"
       id="path44"
       d="m 65.779959,-29.86174 c 0.323184,-1.40047 0.484775,-2.854806 0.484775,-4.309142 0,-2.800942 -0.64637,-5.494156 -1.723656,-7.864184 -0.161594,0.107729 -0.323184,0.161592 -0.484779,0.161592 -0.538643,0 -0.915691,-0.430914 -0.915691,-0.915692 0,-0.377051 0.215458,-0.700236 0.592506,-0.861829 -3.231857,-5.601885 -9.264656,-9.31852 -16.159284,-9.31852 -6.625306,0 -12.442649,3.393449 -15.72837,8.56442 0.107729,0 0.215457,-0.05386 0.323186,-0.05386 0.861828,0 1.454336,0.700235 1.400471,1.562064 -0.05386,0.700236 -0.538643,1.292742 -1.400471,1.292742 -0.700236,0 -1.238879,-0.161592 -1.454336,-0.807964 -1.185014,2.477757 -1.831385,5.224836 -1.831385,8.133508 0,0.538643 0,1.02342 0.05386,1.508199 0.269322,-0.107729 0.7541,-0.161592 1.023421,-0.161592 1.777522,-0.05387 2.747079,1.346607 2.747079,2.90867 0,1.454336 -1.077286,2.63935 -2.423893,2.854806 2.046843,4.901651 6.086664,8.779879 11.149906,10.503535 0.107728,-0.915691 0.7541,-1.562065 1.723657,-1.723656 1.077285,-0.161594 2.046843,0.915692 2.046843,1.992977 0,0.215458 -0.05386,0.430916 -0.107729,0.592506 0.807964,0.107731 1.669793,0.161595 2.531621,0.161595 7.648728,0 14.22017,-4.578464 17.182706,-11.149907 -0.377048,-0.323184 -0.64637,-0.861827 -0.64637,-1.40047 -0.107731,-0.754101 0.64637,-1.562065 1.615929,-1.669794 z m -26.662821,-6.840763 c 0,-1.13115 1.023422,-2.262299 2.154571,-2.262299 1.185015,0 2.208436,0.915692 2.208436,2.100707 0,1.13115 -1.185014,2.477757 -2.316164,2.477757 -1.185015,-0.05387 -2.046843,-1.185015 -2.046843,-2.316165 z m 0.37705,13.519935 c -0.7541,0.161592 -1.615928,-0.48478 -1.615928,-1.238878 0,-0.754101 0.37705,-1.454336 1.13115,-1.454336 0.754099,0 1.615928,0.484779 1.615928,1.238878 -0.05386,0.807964 -0.37705,1.292743 -1.13115,1.454336 z m 1.777521,-22.51527 c -1.023421,0 -1.88525,-0.861828 -1.88525,-1.885249 0,-1.023422 1.023422,-1.88525 2.100708,-1.88525 1.023421,0 1.831385,0.861828 1.831385,1.939114 0,1.023421 -0.969557,1.831385 -2.046843,1.831385 z m 8.2951,-2.316164 c -0.538643,0 -0.969557,-0.592507 -0.969557,-1.131149 0,-0.538643 0.430914,-0.915693 0.915691,-0.915693 0.538643,0 1.185015,0.37705 1.185015,0.915693 0.05387,0.538642 -0.592506,1.131149 -1.131149,1.131149 z m 5.063241,27.901698 c -1.615928,0 -3.28572,-0.86183 -3.28572,-2.477758 0,-1.615928 1.023422,-3.070262 2.63935,-3.070262 1.615929,0 3.124128,0.861827 3.124128,2.477756 0,1.615928 -0.915693,3.070264 -2.477758,3.070264 z m -6.409848,-10.503535 c 0,-0.7541 0.592506,-1.346607 1.346607,-1.346607 0.754099,0 1.669792,0.538643 1.669792,1.292742 0,0.754101 -0.915693,1.723657 -1.669792,1.723657 -0.754101,-0.05386 -1.346607,-0.915693 -1.346607,-1.669792 z m 6.625306,-6.517578 c -2.100708,0 -3.555042,-1.615928 -3.555042,-3.770499 0,-2.100707 2.100706,-3.716636 4.201414,-3.716636 2.154571,0 3.555041,1.992978 3.555041,4.093685 0,2.154571 -2.100705,3.39345 -4.201413,3.39345 z" />
  </g>
</svg>
